<?xml version="1.0" encoding="utf-8"?>
<!-- Generator: Adobe Illustrator 23.0.3, SVG Export Plug-In . SVG Version: 6.00 Build 0)  -->
<svg version="1.1" id="Lager_1" xmlns="http://www.w3.org/2000/svg" xmlns:xlink="http://www.w3.org/1999/xlink" x="0px" y="0px"
	 viewBox="0 0 298.6 522.1" style="enable-background:new 0 0 298.6 522.1;" xml:space="preserve">
<style type="text/css">
	.st0{display:none;enable-background:new    ;}
	.st1{display:inline;}
	.st2{display:none;}
	.st3{display:none;fill:none;stroke:#FFFFFF;stroke-width:5;stroke-miterlimit:10;}
	.st4{display:none;fill:none;stroke:#FFFFFF;stroke-width:4;stroke-miterlimit:10;}
	.st5{display:none;stroke:#FFFFFF;stroke-width:5;stroke-miterlimit:10;}
	.st6{fill:none;}
	.st7{enable-background:new    ;}
	.st8{fill:#FF780A;}
	.st9{fill:#FFFFFF;}
	.st10{font-family:'Consolas';}
	.st11{font-size:58.9032px;}
</style>
<g class="st0">
	<path class="st1" d="M12.6,454.6V298.8H26v65.5L54.4,320l10.8,10.9l-21.9,34.7l37.8,89H66l-31.3-75.3L26,393.1v61.5H12.6z"/>
	<path class="st1" d="M81.5,344.7l13.4,9.3v59c0,8.5,1.4,16.6,4.1,20.3c2.7,3.7,6.8,5.6,12.3,5.6h0.6c5.1,0,8.9-1.9,11.7-5.6
		c3.1-4.3,4.7-12.3,4.7-20.3v-46.3l13.4,1.6V413c0,13.9-2.9,24.8-8.8,32.7c-4.3,5.9-11.3,8.8-21,8.8h-0.6c-9.7,0-16.7-2.9-21-8.8
		c-5.8-8-8.8-18.9-8.8-32.7V344.7z"/>
	<path class="st1" d="M213.4,342.2v112.4H197L167,398.4h-0.6l-0.3,56.2h-13.4l0.2-86.1l15-2.2l31.4,61.8h0.6l0.1-75.8L213.4,342.2z"
		/>
	<path class="st1" d="M284.6,411.4c-0.9,19-7.6,28.9-7.6,28.9c-5.5,9.6-14.4,14.3-21.8,14.3c-6.6,0-12.3-3.2-16.9-9.6
		c-9-12.2-13.4-33.8-13.4-64.7c0-33,4.9-56.2,14.6-69.5c5.8-8,12.3-12,19.3-12c7.4,0,13.2,2.9,17.5,8.8c6.6,9.1,9.9,22.4,9.9,39.9
		h-12.3c-0.4-13.8-2.3-23.2-5.8-28c-2.7-3.7-5.8-5.6-9.3-5.6c-3.1,0-5.6,1.3-7.6,4c-8.6,11.7-12.8,32.5-12.8,62.3
		c0,26.1,3.1,43.4,9.3,51.9c3.1,4.3,6.2,6.4,9.3,6.4c3.9,0,7.4-2.1,10.5-6.4c4.7-6.4,7-17,7-32v-15.2h-18.1v-15.2h29.8L284.6,411.4z
		"/>
</g>
<path class="st2" d="M272.5,371c0,70.4-57.1,127.5-127.5,127.5S17.5,441.4,17.5,371"/>
<rect x="17.5" y="339" class="st2" width="255" height="36"/>
<path class="st3" d="M108,412.5c0,0,32,7,57,5c0,0,22-49,22-52s-43.5-39-43.5-39l-47.5,30L108,412.5z"/>
<path class="st4" d="M161,487.5c0,0,18-14,29-31c0,0,37-8,44-13c0,0,3.2,15-3.4,22s-28.8,23.7-45.7,27.8
	C178,494.5,170,492.5,161,487.5z"/>
<path class="st5" d="M235,443.5c0,0,23-44,21-51s-16-32-23-39l-46,12l-22,52l25,39C190,456.5,229,448.5,235,443.5z"/>
<path class="st3" d="M80,447.5l28-35c0,0,32,6,57,5l25,39c0,0-13,20-29,31c0,0-22,4-54-5C107,482.5,93,472.5,80,447.5z"/>
<path class="st3" d="M80,447.5c0,0-26-9-39-22c0,0-8-15-13-53c0,0,9-18,26-33.5c0,0.5,42,17.5,42,17.5"/>
<path class="st4" d="M41,425.5c0,0-3,9,2,22s40.3,37.9,45.2,38.4s15.9,0.6,18.9-3.4"/>
<path class="st4" d="M256,393.5c0,0,14-9,19.5-24.5"/>
<path class="st4" d="M233,353.5c0,0,3-0.4,4.5-17.7"/>
<path class="st4" d="M28,372.5c0,0-9-5.6-13.5-24.5"/>
<g id="Lager_3" class="st2">
	<g class="st1">
		<path d="M44,659.4H21.8L-37,567.2v92.2h-15.9l1.5-182.8H-37v79.5l49.3-69.9L25,498.9l-50.9,63.6L44,659.4z"/>
		<path d="M139.2,615.8c0,7-1,13.4-3,18.9c-2.1,5.6-4.9,10.5-8.7,14.5c-3.8,4-8.4,7-14,9.2s-11.9,3.2-19.1,3.2
			c-7.9,0-14.6-1.1-20-3.2c-5.6-2.1-10-4.9-13.4-8.7c-3.5-3.8-6-8.3-7.6-13.7S51,624.7,51,618.2V514.8l17.3,9.5v92.8
			c0,4.9,0.5,9.4,1.4,13c1,3.8,2.5,6.8,4.6,9.4c2.1,2.5,4.9,4.5,8.3,5.7c3.3,1.3,7.6,1.9,12.4,1.9c9.2,0,15.9-2.7,20.3-7.9
			c4.5-5.2,6.5-12.7,6.5-22.4V533h17.3v82.8H139.2z"/>
		<path d="M247.5,659.9h-22.6l-37-79l-10.7-25.4v63.9v40.5h-16.1V533l24.3-2.4l33.1,77.4l12.7,29.1v-67.9l0.3-48.2l15.9-6.4v145.3
			H247.5z"/>
		<path d="M359.7,499.2c-4.8-2.5-9.5-4.5-14.6-5.9c-4.9-1.4-10.3-2.1-16.4-2.1c-6.7,0-12.7,1.3-18,3.7s-9.7,5.7-13.2,10.2
			c-3.7,4.5-6.4,9.5-8.3,15.7s-2.9,35.1-2.9,42.6c0,7.8,0.8,18.1,0.8,24.5c0,11.1-1.6,31.8,8.9,45.5c3.3,4.3,7.5,7.5,12.7,9.9
			c5.1,2.2,11.3,3.3,18.4,3.3c1.3,0,2.5,0,4-0.2s2.9-0.3,4.3-0.5s2.9-0.5,4.1-0.8c1.3-0.3,2.5-0.6,3.5-1.1v-73.8h-25.9v-14.3H360
			v98.2c-2.7,1.3-5.4,2.4-8.4,3.3c-3,1-5.9,1.7-9.1,2.4c-3.2,0.6-6.2,1.1-9.2,1.4c-3,0.3-6,0.5-8.7,0.5c-8.7,0-16.5-1.3-23.4-4.1
			c-6.8-2.9-12.9-6.7-17.8-12.1c-4.9-5.4-8.6-11.9-11.3-19.9s-4-50.5-4-61c0-10.3,1.4-42,4.5-50.2c3-8.3,7-15.3,12.2-21
			s11.6-10.2,19.1-13c7.5-3,15.6-4.5,24.5-4.5c5.7,0,11.1,0.5,16.2,1.6c5.1,1,10,2.5,14.8,4.8L359.7,499.2L359.7,499.2z"/>
	</g>
	<text transform="matrix(1 0 0 1 -61.1242 748.5868)" class="st1 st10" style="font-size:109.6806px;">FOTBOLL</text>
</g>
<path class="st6" d="M108.3,239.2l36-22.4l9.5,7.2l24.4,21.8L161,286.9c0,0-25.5-0.8-42.8-4.1C118.2,282.8,108.3,239.2,108.3,239.2z
	"/>
<path d="M164.7,288.9l17.3-41.2l36.2-9.9c0,0,13.2,18.9,18.1,31.3c0,0-8.2,23.9-17.3,39.5c0,0-14,5.8-34.6,9.1L164.7,288.9z"/>
<path d="M116.9,286.5c0,0,19.8,5.8,44.4,4.1l19.8,30.5c0,0-17.3,21.4-22.2,23c0,0-14,4.1-43.6-4.1c0,0-9.1-6.6-20.6-26.3
	L116.9,286.5z"/>
<path d="M105.1,346.9c0,0,30,14.6,65.3,5.5c0-0.1-4.1-0.9-10.7-4.2c0,0-14.8,4.1-44.4-4.1C115.3,344.1,114.7,346.4,105.1,346.9z"/>
<path class="st6" d="M61.8,298.8c0,0-3.3,13.1,9.1,23.4c12.3,10.3,16.5,13.7,21.4,17c4.9,3.3,7.4,5.8,18.9,3.3
	c0,0-14.8-16.5-20.6-27.2C90.6,315.3,71.7,308.7,61.8,298.8z"/>
<path d="M92.2,310.3l21.4-26.3l-9.9-43.6l-32.1-14c0,0-13.2,12.3-19.8,25.5c0,0,6.6,38.7,10.7,42C62.6,293.9,73.3,304.6,92.2,310.3z
	"/>
<path d="M59.2,309c0,0-20.5-26.3-18-66c0,0,4.1,8.9,6.6,8.9c0,0,5.8,37,10.7,43.6C58.5,295.5,56.6,303.6,59.2,309z"/>
<path d="M220.5,324.3c0,0,26.5-21.9,30.6-66.5c0-0.2-9.1,10.5-11.5,11.4c0,0-5.8,25.5-18.1,42.8C221.5,312,222.7,319.5,220.5,324.3z
	"/>
<path class="st6" d="M163,346.6c0,0,14.8,9.1,39.5-9.1c9.1-6.6,14-7.4,16.5-23.9l-34.6,9.1C184.4,322.7,174.6,340,163,346.6z"/>
<g class="st7">
	<path class="st8" d="M13.6,452.3V296.6H27v65.5l28.4-44.3l10.8,10.9l-21.9,34.7l37.8,89H67l-31.3-75.3L27,390.8v61.5H13.6z"/>
	<path class="st8" d="M82.5,342.4l13.4,9.3v59c0,8.5,1.4,16.6,4.1,20.3c2.7,3.7,6.8,5.6,12.3,5.6h0.6c5.1,0,8.9-1.9,11.7-5.6
		c3.1-4.3,4.7-12.3,4.7-20.3v-46.3l13.4,1.6v44.7c0,13.9-2.9,24.8-8.8,32.7c-4.3,5.9-11.3,8.8-21,8.8h-0.6c-9.7,0-16.7-2.9-21-8.8
		c-5.8-8-8.8-18.9-8.8-32.7V342.4z"/>
	<path class="st8" d="M214.4,339.9v112.4H198L168,396.1h-0.6l-0.3,56.2h-13.4l0.2-86.1l15-2.2l31.4,61.8h0.6l0.1-75.8L214.4,339.9z"
		/>
	<path class="st8" d="M285.6,409.2c-0.9,19-7.6,28.9-7.6,28.9c-5.5,9.6-14.4,14.3-21.8,14.3c-6.6,0-12.3-3.2-16.9-9.6
		c-9-12.2-13.4-33.8-13.4-64.7c0-33,4.9-56.2,14.6-69.5c5.8-8,12.3-12,19.3-12c7.4,0,13.2,2.9,17.5,8.8c6.6,9.1,9.9,22.4,9.9,39.9
		h-12.3c-0.4-13.8-2.3-23.2-5.8-28c-2.7-3.7-5.8-5.6-9.3-5.6c-3.1,0-5.6,1.3-7.6,4c-8.6,11.7-12.8,32.5-12.8,62.3
		c0,26.1,3.1,43.4,9.3,51.9c3.1,4.3,6.2,6.4,9.3,6.4c3.9,0,7.4-2.1,10.5-6.4c4.7-6.4,7-17,7-32v-15.2h-18.1v-15.2h29.8L285.6,409.2z
		"/>
</g>
<text transform="matrix(1 0 0 1 34.2541 504.3946)" class="st9 st10 st11">FOTBOLL</text>
<path class="st6" d="M49.2,248.8c0,0-6.9-4.5-6.6-21c0,0,3.1-17.4,16.7-37.4c0,0,6.2-5.6,16.1-5.7c0,0-7.7,12.4-6.8,36.5
	C68.6,221.2,53.1,238.8,49.2,248.8z"/>
<path class="st6" d="M238.1,266.6c0,0,11.8-8.5,11.9-19.8c0.1-11.3-4.8-37.6-9.6-40.1c0,0-5.6-7.9-18.7-9.8c0,0,5.1,8.6,0,38.6
	C221.7,235.5,237.9,255,238.1,266.6z"/>
<path d="M48.3,152.1"/>
<g>
	<rect x="61" y="173.1" width="168.6" height="8.1"/>
	<path d="M250.4,101.6c-0.6,0-1.1,0.1-1.7,0.2l14.9-43.1h-14.4l-4.2,9.6c-2.6,4.6-6.5,9.7-11.8,11.5c2.3-1.8,3.8-4.5,3.8-7.6
		c0-5.2-4.3-9.5-9.5-9.5c-5.2,0-9.5,4.3-9.5,9.5c0,0.5,0.1,0.9,0.1,1.4c-1.7-2.6-4.6-4.5-8-4.5c-5.3,0-9.5,4.3-9.5,9.5
		c0,5.2,4.3,9.5,9.5,9.5c0.7,0,1.3-0.1,1.9-0.2c-2.4,1.8-3.9,4.5-3.9,7.6c0,5.3,4.3,9.5,9.5,9.5c5.3,0,9.5-4.3,9.5-9.5
		c0-0.2,0-0.4,0-0.6c1.8,5.1,0.6,11.3-1.1,16.1c-4.4,7.5-16,22.8-30.7,7.1c-18.8,20.1-32.6-10.7-32.6-10.7l-1.4-3.3
		c-1.3-4.9-2.5-13.7,1.9-19.6c-0.6,2.1-0.5,4.5,0.5,6.6c2.2,4.8,7.8,6.8,12.6,4.6c4.8-2.2,6.8-7.8,4.6-12.6
		c-0.2-0.4-0.4-0.8-0.7-1.3c2.6,1.7,6.1,2.1,9.2,0.6c4.8-2.2,6.8-7.8,4.6-12.6c-2.3-4.8-7.8-6.8-12.6-4.6c-0.6,0.3-1.2,0.6-1.7,1
		c1.4-2.6,1.6-5.8,0.3-8.6c-2.2-4.8-7.8-6.8-12.6-4.6s-6.8,7.8-4.6,12.6c0.1,0.1,0.1,0.2,0.1,0.3c-7.7-7.3-11-22.1-12.1-28.3
		c2.6,3.2,7,4.5,11,2.9c4.3-1.8,6.6-6.3,5.7-10.7c-0.5-3.1-2.6-6-5.8-7.2c-2.7-1.1-5.5-0.8-7.9,0.4c1.5-2.4,1.9-5.6,0.7-8.5
		c-1.5-3.8-5.2-6-9-5.9c-3.8-0.1-7.5,2.1-9,5.9c-1.2,2.9-0.8,6,0.7,8.5c-2.4-1.3-5.2-1.4-7.9-0.4c-3.2,1.3-5.3,4.1-5.8,7.2
		c-0.9,4.4,1.4,9,5.7,10.7c3.9,1.6,8.4,0.3,11-2.9c-1.1,6.1-4.4,21-12.1,28.3c0.1-0.1,0.1-0.2,0.1-0.3c2.2-4.8,0.1-10.4-4.6-12.6
		c-4.8-2.2-10.4-0.1-12.6,4.6c-1.3,2.9-1.1,6,0.3,8.6c-0.5-0.4-1.1-0.8-1.7-1c-4.8-2.2-10.4-0.1-12.6,4.6
		c-2.2,4.7-0.1,10.4,4.6,12.6c3.1,1.4,6.5,1.1,9.2-0.6c-0.3,0.4-0.5,0.8-0.7,1.3c-2.2,4.8-0.1,10.4,4.6,12.6
		c4.8,2.2,10.4,0.1,12.6-4.6c1-2.1,1.1-4.5,0.5-6.6c4.5,5.9,3.2,14.7,1.9,19.6l-1.4,3.3c0,0-13.8,30.7-32.6,10.7
		c-14.7,15.7-26.3,0.4-30.7-7.1c-1.6-4.8-2.9-10.9-1.1-16.1c0,0.2-0.1,0.4-0.1,0.6c0,5.3,4.3,9.5,9.5,9.5c5.3,0,9.5-4.3,9.5-9.5
		c0-3.1-1.6-6-3.9-7.6c0.6,0.1,1.3,0.2,1.9,0.2c5.3,0,9.5-4.3,9.5-9.5s-4.3-9.5-9.5-9.5c-3.4,0-6.3,1.8-8,4.5
		c0.1-0.4,0.1-0.9,0.1-1.4c0-5.2-4.3-9.5-9.5-9.5s-9.5,4.3-9.5,9.5c0,3.1,1.5,5.9,3.8,7.6c-5.3-1.8-9.3-7-11.8-11.5l-4.2-9.6H27.3
		l14.9,43.1c-0.6-0.1-1.1-0.2-1.7-0.2c-4.7,0-8.5,3.8-8.5,8.5c0,4.7,3.8,8.5,8.5,8.5c2.6,0,4.9-1.2,6.5-3l18.6,54.1h30.1h27.6h2.4
		h16.8h1.9h2.3h4h14.5h2.4h27.6h30.1l18.6-54.1c1.6,1.8,3.9,3,6.5,3c4.7,0,8.5-3.8,8.5-8.5C258.8,105.4,255.1,101.6,250.4,101.6z
		 M133.1,116.1v-2.6v0.1V116.1z M146.5,137.4c-0.2,0.9-0.3,0.9-0.4,0.3c-0.1,0.6-0.2,0.6-0.4-0.3c-1.3-6.3-6.9-13.8-6.9-13.8
		c6.9-8.1,6.9-15.7,6.9-15.7s0.1,2.2,0.2,5.4c0.1-3.1,0.1-5.3,0.1-5.3s0.1,7.5,7.2,15.5C153.1,123.5,147.6,131.2,146.5,137.4z
		 M157.9,116.1v-2.6v-0.1V116.1z"/>
</g>
<path d="M212.6,184.7c2.7,2.6,5.5,5.5,8.3,8.7c0,0,9.1,0.3,17.6,8.3c0,0-4.3-7.9-11.8-17H212.6z"/>
<path d="M207.6,184.7H150c-2.4,33.2-1.5,29.3-1.5,29.3l33.5,28.9l36.2-9.1c3.5-25.7,1.1-36.3,1.1-36.3
	C215.2,192.4,211.3,188.2,207.6,184.7z"/>
<path d="M79,184.7c-0.3,0.3-0.6,0.5-0.9,0.8c0,0-3.4,2.7-5.9,36.3l34.1,13.7c0,0,15-10.6,37-22.6l3-28.2H79z"/>
<circle cx="96.6" cy="136.1" r="7.6"/>
</svg>
