<?xml version="1.0" encoding="utf-8"?>
<!-- Generator: Adobe Illustrator 23.0.3, SVG Export Plug-In . SVG Version: 6.00 Build 0)  -->
<svg version="1.1" id="Lager_1" xmlns="http://www.w3.org/2000/svg" xmlns:xlink="http://www.w3.org/1999/xlink" x="0px" y="0px"
	 viewBox="0 0 557 785" style="enable-background:new 0 0 557 785;" xml:space="preserve">
<style type="text/css">
	.st0{display:none;}
	.st1{display:inline;}
	.st2{font-family:'Consolas';}
	.st3{font-size:69px;}
	.st4{display:inline;fill:none;stroke:#000000;stroke-width:6;stroke-miterlimit:10;}
	.st5{fill:#71BF00;}
	.st6{fill:none;stroke:#000000;stroke-width:6;stroke-miterlimit:10;}
	.st7{fill:#FFFFFF;stroke:#000000;stroke-miterlimit:10;}
	.st8{enable-background:new    ;}
	.st9{font-size:61.2954px;}
	.st10{fill:#FFFFFF;}
	.st11{fill:#656768;}
	.st12{fill:#555453;}
</style>
<g class="st0">
	<g id="Lager_3" class="st1">
		<g>
			<path d="M218,543h-14l-37-58v58h-10l1-115h9v50l31-44l8,8l-32,40L218,543z"/>
			<path d="M277.9,515.6c0,4.4-0.6,8.4-1.9,11.9s-3.1,6.6-5.5,9.1s-5.3,4.4-8.8,5.8s-7.5,2-12,2c-5,0-9.2-0.7-12.6-2
				c-3.5-1.3-6.3-3.1-8.4-5.5c-2.2-2.4-3.8-5.2-4.8-8.6s-1.5-7.1-1.5-11.2V452l10.9,6v58.4c0,3.1,0.3,5.9,0.9,8.2
				c0.6,2.4,1.6,4.3,2.9,5.9s3.1,2.8,5.2,3.6s4.8,1.2,7.8,1.2c5.8,0,10-1.7,12.8-5c2.8-3.3,4.1-8,4.1-14.1v-52.7h10.9V515.6
				L277.9,515.6z"/>
			<path d="M346,543.3h-14.2l-23.3-49.7l-6.7-16v40.2v25.5h-10.1v-79.8L307,462l20.8,48.7l8,18.3v-42.7L336,456l10-4V543.3z"/>
			<path d="M416.6,442.2c-3-1.6-6-2.8-9.2-3.7c-3.1-0.9-6.5-1.3-10.3-1.3c-4.2,0-8,0.8-11.3,2.3s-6.1,3.6-8.3,6.4
				c-2.3,2.8-4,6-5.2,9.9s-1.8,22.1-1.8,26.8c0,4.9,0.5,11.4,0.5,15.4c0,7-1,20,5.6,28.6c2.1,2.7,4.7,4.7,8,6.2
				c3.2,1.4,7.1,2.1,11.6,2.1c0.8,0,1.6,0,2.5-0.1s1.8-0.2,2.7-0.3c0.9-0.1,1.8-0.3,2.6-0.5s1.6-0.4,2.2-0.7v-46.4h-16.3v-9h27v61.8
				c-1.7,0.8-3.4,1.5-5.3,2.1s-3.7,1.1-5.7,1.5s-3.9,0.7-5.8,0.9s-3.8,0.3-5.5,0.3c-5.5,0-10.4-0.8-14.7-2.6s-8.1-4.2-11.2-7.6
				s-5.4-7.5-7.1-12.5s-2.5-31.8-2.5-38.4c0-6.5,0.9-26.4,2.8-31.6s4.4-9.6,7.7-13.2s7.3-6.4,12-8.2c4.7-1.9,9.8-2.8,15.4-2.8
				c3.6,0,7,0.3,10.2,1c3.2,0.6,6.3,1.6,9.3,3L416.6,442.2L416.6,442.2z"/>
		</g>
		<text transform="matrix(1 0 0 1 151.8804 599.1309)" class="st2 st3">FOTBOLL</text>
	</g>
	
		<image style="display:inline;overflow:visible;enable-background:new    ;" width="1300" height="1390" xlink:href="A82F1155.jpg"  transform="matrix(1 0 0 1 -848 82)">
	</image>
	<path class="st4" d="M266.6,183.3"/>
	<path class="st4" d="M203.3,330.6"/>
	<path class="st4" d="M338.4,91"/>
</g>
<path class="st5" d="M287.2,139.3l-0.8,143.8h-72.1c0,0-3.3-25.1-56.2-85.3s64.1-43,64.1-43S262.2,147.1,287.2,139.3z"/>
<path class="st6" d="M278.5,103.3c0,0-39.8,61.7-100.5,36.8c-22.5-9.2-36.9-9-44.8-3.4c-14.4,10.2-7.5,38.3,9.9,59.8
	c42.7,52.4,57.2,78.7,57.2,78.7"/>
<path d="M272.9,264.1v-21.5c0,0-36.5-97.7-3-101.5l11.2-43h8.9l-2,172.5h-15.2L272.9,264.1z"/>
<path d="M220.3,281.2l-43-56.3c0,0-43.5-67.1-13.6-86.6s52.6,3,52.6,3l-2.6,3l-15.9-9.3c0,0-31.1-16,0,54.5s31.3,90.1,31.3,90.1
	L220.3,281.2z"/>
<circle cx="287.2" cy="84.8" r="20.8"/>
<path class="st5" d="M287.2,139.3l0.8,143.8h72.1c0,0,3.3-25.1,56.2-85.3s-64.1-43-64.1-43S312.3,147.1,287.2,139.3z"/>
<polygon points="377.9,290.4 281.8,290.4 281.8,290.4 196.5,290.4 196.5,320.8 292.6,320.8 292.6,320.8 377.9,320.8 "/>
<path class="st6" d="M296,103.3c0,0,39.8,61.7,100.5,36.8c22.5-9.2,36.9-9,44.8-3.4c14.4,10.2,7.5,38.3-9.9,59.8
	c-42.7,52.4-57.2,78.7-57.2,78.7"/>
<path d="M301.6,264.1v-21.5c0,0,36.5-97.7,3-101.5l-11.2-43h-8.9l2,172.5h15.2L301.6,264.1z"/>
<path d="M356.1,280.4l41.1-55.5c0,0,43.5-67.1,13.6-86.6s-52.6,3-52.6,3l2.6,3l15.9-9.3c0,0,31.1-16,0,54.5s-29.1,89.3-29.1,89.3
	L356.1,280.4z"/>
<path d="M247.5,382.5l37.5-23.4l9.9,7.5l25.4,22.7l-18,42.8c0,0-26.6-0.9-44.5-4.3C257.8,427.9,247.5,382.5,247.5,382.5z"/>
<path class="st7" d="M306.2,434.3l18-42.8l37.7-10.3c0,0,13.7,19.7,18.8,32.5c0,0-8.6,24.8-18,41.1c0,0-14.6,6-36,9.4L306.2,434.3z"
	/>
<path class="st7" d="M256.5,431.7c0,0,20.6,6,46.2,4.3l20.6,31.7c0,0-18,22.3-23.1,24c0,0-14.6,4.3-45.4-4.3c0,0-9.4-6.9-21.4-27.4
	L256.5,431.7z"/>
<path class="st7" d="M244.2,494.6c0,0,31.2,15.2,68,5.7c0-0.1-4.3-0.9-11.1-4.4c0,0-15.4,4.3-46.2-4.3
	C254.8,491.7,254.2,494.1,244.2,494.6z"/>
<path d="M199.2,444.6c0,0-3.4,13.6,9.4,24.3c12.8,10.7,17.1,14.2,22.3,17.6s7.7,6,19.7,3.4c0,0-15.4-17.1-21.4-28.3
	C229.1,461.7,209.4,454.8,199.2,444.6z"/>
<path class="st7" d="M230.8,456.6l22.3-27.4l-10.3-45.4l-33.4-14.6c0,0-13.7,12.8-20.6,26.6c0,0,6.9,40.3,11.1,43.7
	C200,439.4,211.1,450.6,230.8,456.6z"/>
<path class="st7" d="M196.5,455.2c0,0-21.3-27.3-18.8-68.7c0,0,4.3,9.2,6.9,9.2c0,0,6,38.5,11.1,45.4
	C195.7,441.1,193.8,449.5,196.5,455.2z"/>
<path class="st7" d="M364.3,471.1c0,0,27.6-22.8,31.9-69.2c0-0.2-9.4,11-12,11.8c0,0-6,26.6-18.8,44.5
	C365.3,458.3,366.6,466.1,364.3,471.1z"/>
<path d="M304.5,494.2c0,0,15.4,9.4,41.1-9.4c9.4-6.9,14.6-7.7,17.1-24.8l-36,9.4C326.8,469.4,316.5,487.4,304.5,494.2z"/>
<path d="M186,392.5c0,0-7.1-4.7-6.9-21.9c0,0,3.2-18.1,17.3-38.9c0,0,6.5-5.8,16.8-5.9c0,0-8,12.9-7,38
	C206.2,363.8,190.1,382.1,186,392.5z"/>
<path d="M382.6,411c0,0,12.3-8.8,12.4-20.6c0.1-11.8-5-39.1-10-41.7c0,0-5.8-8.2-19.5-10.2c0,0,5.3,8.9,0,40.1
	C365.6,378.7,382.4,399,382.6,411z"/>
<path class="st7" d="M356.1,325.8c2.9,2.7,5.8,5.7,8.6,9.1c0,0,9.5,0.3,18.3,8.6c0,0-4.5-8.2-12.3-17.7H356.1z"/>
<path class="st7" d="M350.9,325.8H291c-2.5,34.6-1.5,30.5-1.5,30.5l34.8,30.1L362,377c3.6-26.7,1.1-37.8,1.1-37.8
	C358.8,333.9,354.7,329.5,350.9,325.8z"/>
<path class="st7" d="M217.1,325.8c-0.3,0.3-0.6,0.5-1,0.8c0,0-3.5,2.8-6.1,37.8l35.5,14.3c0,0,15.6-11.1,38.5-23.6l3.1-29.4h-70
	V325.8z"/>
<g class="st8">
	<path d="M148,606.2v-162h14v68.2l29.6-46.1l11.2,11.3l-22.8,36l39.4,92.6h-15.8L171,527.9l-9,14.3v64H148z"/>
	<path d="M219.7,491.9l14,9.7V563c0,8.9,1.4,17.2,4.3,21.1c2.8,3.9,7.1,5.8,12.7,5.8h0.6c5.3,0,9.3-1.9,12.1-5.8
		c3.2-4.4,4.9-12.8,4.9-21.1v-48.2l14,1.7V563c0,14.4-3,25.8-9.1,34.1c-4.5,6.1-11.7,9.1-21.9,9.1h-0.6c-10.1,0-17.4-3-21.9-9.1
		c-6.1-8.3-9.1-19.7-9.1-34.1L219.7,491.9L219.7,491.9z"/>
	<path d="M356.9,489.3v116.9h-17l-31.3-58.5H308l-0.3,58.5h-14l0.2-89.6l15.6-2.2l32.7,64.3h0.6l0.1-78.8L356.9,489.3z"/>
	<path d="M431,561.3c-1,19.8-7.9,30-7.9,30c-5.7,10-15,14.9-22.7,14.9c-6.9,0-12.8-3.3-17.6-10c-9.3-12.7-14-35.2-14-67.3
		c0-34.4,5.1-58.5,15.2-72.3c6.1-8.3,12.8-12.5,20-12.5c7.7,0,13.8,3.1,18.2,9.1c6.9,9.4,10.3,23.3,10.3,41.6h-12.8
		c-0.4-14.4-2.4-24.1-6.1-29.1c-2.8-3.9-6.1-5.8-9.7-5.8c-3.2,0-5.9,1.4-7.9,4.2c-8.9,12.2-13.4,33.8-13.4,64.8
		c0,27.2,3.2,45.2,9.7,54c3.2,4.4,6.5,6.7,9.7,6.7c4,0,7.7-2.2,10.9-6.7c4.9-6.6,7.3-17.7,7.3-33.2v-15.8h-18.8v-15.8h31"/>
</g>
<text transform="matrix(1 0 0 1 173.6609 660.4356)" class="st5 st2 st9">FOTBOLL</text>
<ellipse class="st10" cx="287.5" cy="149.9" rx="9.5" ry="8.4"/>
<ellipse class="st10" cx="288.1" cy="187" rx="15.4" ry="13.6"/>
<ellipse class="st10" cx="287.5" cy="224.3" rx="9.5" ry="8.4"/>
<ellipse class="st10" cx="156.1" cy="153" rx="9.5" ry="8.4"/>
<ellipse class="st10" cx="166.5" cy="189.4" rx="15.4" ry="13.6"/>
<ellipse class="st10" cx="185.8" cy="225.7" rx="9.5" ry="8.4"/>
<ellipse class="st10" cx="420.5" cy="153" rx="9.5" ry="8.4"/>
<ellipse class="st10" cx="410.1" cy="189.4" rx="15.4" ry="13.6"/>
<ellipse class="st10" cx="390.8" cy="225.7" rx="9.5" ry="8.4"/>
<path class="st11" d="M291.2,295.5l-11.9-3.6c-5.8-1.8-11.9-1.9-17.8-0.5l-17,4.1l-15.3-4.3c-4.7-1.3-9.6-1.4-14.3-0.1l-17.1,4.4
	c-3.4,0-6.2-2.8-6.2-6.2v-12.4c0-3.4,2.8-6.2,6.2-6.2l18.9,4.3c4.3,1,8.7,0.9,12.9-0.3l14.9-4l20.2,4.8c4.2,1,8.5,0.8,12.6-0.4
	l14-4.3c3.4,0,6.2,2.8,6.2,6.2v12.4C297.4,292.7,294.6,295.5,291.2,295.5z"/>
<path class="st11" d="M376.5,295.5l-11.9-3.6c-5.8-1.8-11.9-1.9-17.8-0.5l-17,4.1l-15.3-4.3c-4.7-1.3-9.6-1.4-14.3-0.1l-17.1,4.4
	c-3.4,0-6.2-2.8-6.2-6.2v-12.4c0-3.4,2.8-6.2,6.2-6.2l18.9,4.3c4.3,1,8.7,0.9,12.9-0.3l14.9-4l20.2,4.8c4.2,1,8.5,0.8,12.6-0.4
	l14-4.3c3.4,0,6.2,2.8,6.2,6.2v12.4C382.7,292.7,380,295.5,376.5,295.5z"/>
<g>
	<polygon class="st12" points="310.3,257.3 303.4,281.4 310.6,305.4 286.4,298.5 262.4,305.7 269.3,281.6 262.1,257.5 286.2,264.4 	
		"/>
	<polygon class="st10" points="309.5,280.6 294.5,288.6 286.2,303.4 278.2,288.5 263.4,280.2 278.4,272.2 286.6,257.4 294.6,272.3 	
		"/>
</g>
</svg>
