<?xml version="1.0" encoding="utf-8"?>
<!-- Generator: Adobe Illustrator 23.0.3, SVG Export Plug-In . SVG Version: 6.00 Build 0)  -->
<svg version="1.1" id="Lager_1" xmlns="http://www.w3.org/2000/svg" xmlns:xlink="http://www.w3.org/1999/xlink" x="0px" y="0px"
	 viewBox="0 0 557 785" style="enable-background:new 0 0 557 785;" xml:space="preserve">
<style type="text/css">
	.st0{display:none;}
	.st1{display:none;fill:none;stroke:#FFFFFF;stroke-width:5;stroke-miterlimit:10;}
	.st2{display:none;fill:none;stroke:#FFFFFF;stroke-width:4;stroke-miterlimit:10;}
	.st3{display:none;stroke:#FFFFFF;stroke-width:5;stroke-miterlimit:10;}
	.st4{fill:#48E900;}
	.st5{fill:#FFFFFF;}
	.st6{font-family:'Consolas';}
	.st7{font-size:69px;}
	.st8{display:inline;}
	.st9{font-size:193.2468px;}
	.st10{font-size:111.1169px;}
</style>
<path class="st0" d="M413,322c0,70.4-57.1,127.5-127.5,127.5S158,392.4,158,322"/>
<rect x="158" y="290" class="st0" width="255" height="36"/>
<path class="st1" d="M248.5,363.5c0,0,32,7,57,5c0,0,22-49,22-52s-43.5-39-43.5-39l-47.5,30L248.5,363.5z"/>
<path class="st2" d="M301.5,438.5c0,0,18-14,29-31c0,0,37-8,44-13c0,0,3.2,15-3.4,22s-28.8,23.7-45.7,27.8
	C318.5,445.5,310.5,443.5,301.5,438.5z"/>
<path class="st3" d="M375.5,394.5c0,0,23-44,21-51s-16-32-23-39l-46,12l-22,52l25,39C330.5,407.5,369.5,399.5,375.5,394.5z"/>
<path class="st1" d="M220.5,398.5l28-35c0,0,32,6,57,5l25,39c0,0-13,20-29,31c0,0-22,4-54-5C247.5,433.5,233.5,423.5,220.5,398.5z"
	/>
<path class="st1" d="M220.5,398.5c0,0-26-9-39-22c0,0-8-15-13-53c0,0,9-18,26-33.5c0,0.5,42,17.5,42,17.5"/>
<path class="st2" d="M181.5,376.5c0,0-3,9,2,22s40.3,37.9,45.2,38.4s15.9,0.6,18.9-3.4"/>
<path class="st2" d="M396.5,344.5c0,0,14-9,19.5-24.5"/>
<path class="st2" d="M373.5,304.5c0,0,3-0.4,4.5-17.7"/>
<path class="st2" d="M168.5,323.5c0,0-9-5.6-13.5-24.5"/>
<rect x="162.2" y="335.4" width="254.5" height="12.3"/>
<path d="M130.9,455.6c0.9,0,1.7-0.1,2.6-0.3l-22.4,65.1h21.8l6.3-14.5c3.9-6.9,9.8-14.7,17.9-17.4c-3.5,2.6-5.8,6.8-5.8,11.4
	c0,7.9,6.4,14.3,14.3,14.3s14.3-6.4,14.3-14.3c0-0.8-0.1-1.4-0.2-2.2c2.6,4,7,6.7,12.1,6.7c7.9,0,14.3-6.4,14.3-14.3
	s-6.4-14.3-14.3-14.3c-1,0-2,0.1-2.9,0.3c3.6-2.6,5.9-6.8,5.9-11.5c0-7.9-6.4-14.3-14.3-14.3c-7.9,0-14.3,6.4-14.3,14.3
	c0,0.3,0,0.6,0,0.9c-2.7-7.8-0.9-17.1,1.7-24.3c6.6-11.3,24.1-34.3,46.4-10.7c28.4-30.3,49.2,16.1,49.2,16.1l2.1,4.9
	c1.9,7.4,3.8,20.6-2.9,29.5c0.9-3.2,0.8-6.7-0.8-9.9c-3.3-7.2-11.8-10.3-19-6.9c-7.2,3.3-10.3,11.8-6.9,19c0.3,0.7,0.7,1.2,1,1.9
	c-4-2.6-9.2-3.1-13.8-0.9c-7.2,3.3-10.3,11.8-6.9,19c3.4,7.2,11.8,10.2,19,6.9c0.9-0.4,1.8-0.9,2.6-1.5c-2.2,3.9-2.5,8.7-0.5,13
	c3.3,7.2,11.8,10.2,19,6.9c7.2-3.3,10.3-11.8,6.9-19c-0.1-0.1-0.1-0.3-0.2-0.4c11.6,11,16.6,33.4,18.3,42.8
	c-3.9-4.8-10.5-6.8-16.6-4.4c-6.5,2.6-10,9.6-8.6,16.2c0.8,4.7,4,9,8.7,10.9c4.1,1.6,8.3,1.2,11.9-0.6c-2.3,3.7-2.8,8.4-1,12.8
	c2.3,5.7,7.9,9.1,13.6,8.9c5.8,0.1,11.4-3.2,13.6-8.9c1.8-4.4,1.2-9-1-12.8c3.6,1.9,7.9,2.2,11.9,0.6c4.8-1.9,7.9-6.2,8.7-10.9
	c1.4-6.6-2.1-13.5-8.6-16.2c-6-2.5-12.7-0.5-16.6,4.4c1.6-9.3,6.6-31.7,18.3-42.8c-0.1,0.1-0.1,0.3-0.2,0.4
	c-3.3,7.2-0.2,15.7,6.9,19c7.2,3.3,15.7,0.2,19-6.9c2-4.4,1.7-9.1-0.5-13c0.8,0.6,1.6,1.1,2.6,1.5c7.2,3.3,15.7,0.2,19-6.9
	c3.3-7.1,0.2-15.7-6.9-19c-4.6-2.2-9.8-1.6-13.8,0.9c0.4-0.6,0.8-1.2,1-1.9c3.3-7.2,0.2-15.7-6.9-19c-7.2-3.3-15.7-0.2-19,6.9
	c-1.5,3.2-1.7,6.7-0.8,9.9c-6.7-8.9-4.8-22.1-2.9-29.5l2.1-4.9c0,0,20.8-46.4,49.2-16.1c22.1-23.7,39.7-0.6,46.4,10.7
	c2.5,7.2,4.4,16.5,1.7,24.3c0-0.3,0.1-0.6,0.1-0.9c0-7.9-6.4-14.3-14.3-14.3c-7.9,0-14.3,6.4-14.3,14.3c0,4.7,2.4,9,5.9,11.5
	c-0.9-0.2-2-0.3-2.9-0.3c-7.9,0-14.3,6.4-14.3,14.3s6.4,14.3,14.3,14.3c5.1,0,9.6-2.6,12.1-6.7c-0.1,0.7-0.2,1.4-0.2,2.2
	c0,7.9,6.4,14.3,14.3,14.3s14.3-6.4,14.3-14.3c0-4.7-2.3-8.9-5.8-11.4c8,2.7,14,10.5,17.9,17.4l6.3,14.5h21.8l-22.4-65.1
	c0.9,0.2,1.7,0.3,2.6,0.3c7.1,0,12.8-5.7,12.8-12.8c0-7.1-5.7-12.8-12.8-12.8c-3.9,0-7.4,1.8-9.7,4.5L410,352.9h-45.4h-41.7h-3.7
	h-25.4h-2.8h-3.4h-6.1h-21.9h-3.7h-41.7h-45.4l-28.1,81.7c-2.4-2.7-5.9-4.5-9.7-4.5c-7.1,0-12.8,5.7-12.8,12.8
	C118.1,449.9,123.8,455.6,130.9,455.6z M308,433.8v3.9v-0.1V433.8z M287.8,401.5c0.3-1.4,0.5-1.4,0.6-0.4c0.1-0.9,0.3-0.9,0.6,0.5
	c1.9,9.5,10.4,20.8,10.4,20.8c-10.4,12.3-10.4,23.7-10.4,23.7s-0.1-3.3-0.3-8.1c-0.1,4.7-0.1,8-0.1,8s-0.2-11.4-10.9-23.5
	C277.8,422.5,286.1,411,287.8,401.5z M270.5,433.8v3.9v0.1V433.8z"/>
<g id="Lager_3">
	<g>
		<path class="st4" d="M221.1,265.7h-14l-37-58v58h-10l1-115h9v50l31-44l8,8l-32,40L221.1,265.7z"/>
		<path class="st4" d="M281,238.3c0,4.4-0.6,8.4-1.9,11.9s-3.1,6.6-5.5,9.1s-5.3,4.4-8.8,5.8s-7.5,2-12,2c-5,0-9.2-0.7-12.6-2
			c-3.5-1.3-6.3-3.1-8.4-5.5c-2.2-2.4-3.8-5.2-4.8-8.6s-1.5-7.1-1.5-11.2v-65.1l10.9,6v58.4c0,3.1,0.3,5.9,0.9,8.2
			c0.6,2.4,1.6,4.3,2.9,5.9s3.1,2.8,5.2,3.6c2.1,0.8,4.8,1.2,7.8,1.2c5.8,0,10-1.7,12.8-5c2.8-3.3,4.1-8,4.1-14.1v-52.7H281V238.3
			L281,238.3z"/>
		<path class="st4" d="M349.1,266h-14.2l-23.3-49.7l-6.7-16v40.2V266h-10.1v-79.8l15.3-1.5l20.8,48.7l8,18.3V209l0.2-30.3l10-4V266z
			"/>
		<path class="st4" d="M419.7,164.9c-3-1.6-6-2.8-9.2-3.7c-3.1-0.9-6.5-1.3-10.3-1.3c-4.2,0-8,0.8-11.3,2.3s-6.1,3.6-8.3,6.4
			c-2.3,2.8-4,6-5.2,9.9s-1.8,22.1-1.8,26.8c0,4.9,0.5,11.4,0.5,15.4c0,7-1,20,5.6,28.6c2.1,2.7,4.7,4.7,8,6.2
			c3.2,1.4,7.1,2.1,11.6,2.1c0.8,0,1.6,0,2.5-0.1s1.8-0.2,2.7-0.3c0.9-0.1,1.8-0.3,2.6-0.5s1.6-0.4,2.2-0.7v-46.4H393v-9h27v61.8
			c-1.7,0.8-3.4,1.5-5.3,2.1s-3.7,1.1-5.7,1.5s-3.9,0.7-5.8,0.9s-3.8,0.3-5.5,0.3c-5.5,0-10.4-0.8-14.7-2.6s-8.1-4.2-11.2-7.6
			s-5.4-7.5-7.1-12.5s-2.5-31.8-2.5-38.4c0-6.5,0.9-26.4,2.8-31.6s4.4-9.6,7.7-13.2s7.3-6.4,12-8.2c4.7-1.9,9.8-2.8,15.4-2.8
			c3.6,0,7,0.3,10.2,1c3.2,0.6,6.3,1.6,9.3,3L419.7,164.9L419.7,164.9z"/>
	</g>
	<text transform="matrix(1 0 0 1 154.9901 321.7873)" class="st5 st6 st7">FOTBOLL</text>
</g>
<g id="Lager_4" class="st0">
	<text transform="matrix(1 0 0 1 70.6016 617.0693)" class="st8 st6 st9">KUNG</text>
	<text transform="matrix(1 0 0 1 74.3525 702.4941)" class="st8 st6 st10">FOTBOLL</text>
</g>
</svg>
