<?xml version="1.0" encoding="utf-8"?>
<!-- Generator: Adobe Illustrator 23.0.3, SVG Export Plug-In . SVG Version: 6.00 Build 0)  -->
<svg version="1.1" id="Lager_1" xmlns="http://www.w3.org/2000/svg" xmlns:xlink="http://www.w3.org/1999/xlink" x="0px" y="0px"
	 viewBox="0 0 557 785" style="enable-background:new 0 0 557 785;" xml:space="preserve">
<style type="text/css">
	.st0{display:none;}
	.st1{display:none;fill:none;stroke:#FFFFFF;stroke-width:5;stroke-miterlimit:10;}
	.st2{display:none;fill:none;stroke:#FFFFFF;stroke-width:4;stroke-miterlimit:10;}
	.st3{display:none;stroke:#FFFFFF;stroke-width:5;stroke-miterlimit:10;}
	.st4{font-family:'Consolas';}
	.st5{font-size:109.6806px;}
	.st6{display:inline;}
	.st7{font-size:193.2468px;}
	.st8{font-size:111.1169px;}
</style>
<path class="st0" d="M413,322c0,70.4-57.1,127.5-127.5,127.5S158,392.4,158,322"/>
<rect x="158" y="290" class="st0" width="255" height="36"/>
<path class="st1" d="M248.5,363.5c0,0,32,7,57,5c0,0,22-49,22-52s-43.5-39-43.5-39l-47.5,30L248.5,363.5z"/>
<path class="st2" d="M301.5,438.5c0,0,18-14,29-31c0,0,37-8,44-13c0,0,3.2,15-3.4,22s-28.8,23.7-45.7,27.8
	C318.5,445.5,310.5,443.5,301.5,438.5z"/>
<path class="st3" d="M375.5,394.5c0,0,23-44,21-51s-16-32-23-39l-46,12l-22,52l25,39C330.5,407.5,369.5,399.5,375.5,394.5z"/>
<path class="st1" d="M220.5,398.5l28-35c0,0,32,6,57,5l25,39c0,0-13,20-29,31c0,0-22,4-54-5C247.5,433.5,233.5,423.5,220.5,398.5z"
	/>
<path class="st1" d="M220.5,398.5c0,0-26-9-39-22c0,0-8-15-13-53c0,0,9-18,26-33.5c0,0.5,42,17.5,42,17.5"/>
<path class="st2" d="M181.5,376.5c0,0-3,9,2,22s40.3,37.9,45.2,38.4s15.9,0.6,18.9-3.4"/>
<path class="st2" d="M396.5,344.5c0,0,14-9,19.5-24.5"/>
<path class="st2" d="M373.5,304.5c0,0,3-0.4,4.5-17.7"/>
<path class="st2" d="M168.5,323.5c0,0-9-5.6-13.5-24.5"/>
<path d="M247.2,314.3l25.4-15.8h21.9l25.4,22.7L302,364c0,0-26.6-0.9-44.5-4.3C257.5,359.7,247.2,314.3,247.2,314.3z"/>
<path d="M305.9,366.1l18-42.8l37.7-10.3c0,0,13.7,19.7,18.8,32.5c0,0-8.6,24.8-18,41.1c0,0-14.6,6-36,9.4L305.9,366.1z"/>
<path d="M256.2,363.5c0,0,20.6,6,46.2,4.3l20.6,31.7c0,0-18,22.3-23.1,24c0,0-14.6,4.3-45.4-4.3c0,0-9.4-6.9-21.4-27.4L256.2,363.5z
	"/>
<path d="M243.9,426.4c0,0,31.2,15.2,68,5.7c0-0.1-4.3-0.9-11.1-4.4c0,0-15.4,4.3-46.2-4.3C254.5,423.5,253.9,425.9,243.9,426.4z"/>
<path d="M198.8,376.4c0,0-3.4,13.6,9.4,24.3c12.8,10.7,17.1,14.2,22.3,17.6s7.7,6,19.7,3.4c0,0-15.4-17.1-21.4-28.3
	C228.8,393.5,209.1,386.7,198.8,376.4z"/>
<path d="M230.5,388.4l22.3-27.4l-10.3-45.4L209.1,301c0,0-13.7,12.8-20.6,26.6c0,0,6.9,40.3,11.1,43.7
	C199.7,371.2,210.8,382.4,230.5,388.4z"/>
<path d="M196.1,387c0,0-21.3-27.3-18.8-68.7c0,0,4.3,9.2,6.9,9.2c0,0,6,38.5,11.1,45.4C195.4,373,193.4,381.3,196.1,387z"/>
<path d="M177.4,298.4h27.9c0,0-10.8,10.3-20.2,25.7c0,0-6-7.7-7.7-15C177.4,308.7,177.4,298.4,177.4,298.4z"/>
<polygon points="214,298.4 263.9,298.4 245,310.4 "/>
<polygon points="301.1,298.4 323.8,318.1 361.5,308.7 363.9,298.4 "/>
<path d="M395.8,298.4h-28.1c0,0-1,6-2.7,12.8c0,0,10.3,12,18,30c0,0,8.6-4.3,12.8-15.4V298.4z"/>
<path d="M363.9,402.9c0,0,27.6-22.8,31.9-69.2c0-0.2-9.4,11-12,11.8c0,0-6,26.6-18.8,44.5C365,390.1,366.2,397.9,363.9,402.9z"/>
<path d="M304.1,426.1c0,0,15.4,9.4,41.1-9.4c9.4-6.9,14.6-7.7,17.1-24.8l-36,9.4C326.4,401.2,316.1,419.2,304.1,426.1z"/>
<g>
	<rect x="169" y="287.7" width="230.4" height="11.1"/>
	<path d="M427.8,190.1c-0.8,0-1.5,0.1-2.3,0.3l20.3-58.9h-19.7l-5.7,13.1c-3.5,6.3-8.9,13.3-16.2,15.8c3.2-2.4,5.2-6.2,5.2-10.4
		c0-7.1-5.8-12.9-12.9-12.9s-12.9,5.8-12.9,12.9c0,0.7,0.1,1.3,0.2,2c-2.3-3.6-6.3-6.1-11-6.1c-7.2,0-12.9,5.8-12.9,12.9
		c0,7.1,5.8,12.9,12.9,12.9c0.9,0,1.8-0.1,2.7-0.3c-3.3,2.4-5.3,6.2-5.3,10.4c0,7.2,5.8,12.9,12.9,12.9c7.2,0,12.9-5.8,12.9-12.9
		c0-0.3,0-0.5,0-0.8c2.5,7,0.8,15.5-1.5,22c-6,10.2-21.8,31.1-42,9.7c-25.7,27.4-44.5-14.6-44.5-14.6l-1.9-4.5
		c-1.7-6.7-3.4-18.7,2.7-26.7c-0.9,2.9-0.7,6.1,0.7,9c3,6.5,10.7,9.3,17.2,6.3c6.5-3,9.3-10.7,6.3-17.2c-0.3-0.6-0.6-1.1-0.9-1.7
		c3.6,2.3,8.3,2.8,12.5,0.9c6.5-3,9.3-10.7,6.3-17.2c-3.1-6.5-10.7-9.2-17.2-6.3c-0.9,0.3-1.6,0.9-2.3,1.4c2-3.5,2.2-7.9,0.4-11.7
		c-3-6.5-10.7-9.2-17.2-6.3c-6.5,3-9.3,10.7-6.3,17.2c0.1,0.1,0.1,0.3,0.2,0.3c-10.5-9.9-15-30.2-16.5-38.7c3.5,4.4,9.5,6.2,15,3.9
		c5.9-2.4,9.1-8.7,7.8-14.6c-0.7-4.3-3.6-8.1-7.9-9.8c-3.7-1.5-7.5-1.1-10.8,0.5c2.1-3.3,2.6-7.6,0.9-11.6
		c-2.1-5.1-7.1-8.2-12.3-8.1c-5.2-0.1-10.3,2.9-12.3,8.1c-1.6,3.9-1.1,8.1,0.9,11.6c-3.3-1.7-7.1-2-10.8-0.5
		c-4.4,1.7-7.2,5.6-7.9,9.8c-1.3,6,1.9,12.2,7.8,14.6c5.4,2.2,11.5,0.4,15-3.9c-1.5,8.4-6,28.7-16.5,38.7c0.1-0.1,0.1-0.3,0.2-0.3
		c3-6.5,0.2-14.2-6.3-17.2c-6.5-3-14.2-0.2-17.2,6.3c-1.8,3.9-1.5,8.2,0.4,11.7c-0.7-0.5-1.5-1-2.3-1.4c-6.5-3-14.2-0.2-17.2,6.3
		c-3,6.4-0.2,14.2,6.3,17.2c4.2,2,8.9,1.5,12.5-0.9c-0.3,0.5-0.7,1.1-0.9,1.7c-3,6.5-0.2,14.2,6.3,17.2c6.5,3,14.2,0.2,17.2-6.3
		c1.4-2.9,1.5-6.1,0.7-9c6.1,8.1,4.4,20,2.7,26.7l-1.9,4.5c0,0-18.8,42-44.5,14.6c-20,21.4-36,0.5-42-9.7c-2.2-6.5-4-14.9-1.5-22
		c0,0.3-0.1,0.5-0.1,0.8c0,7.2,5.8,12.9,12.9,12.9c7.2,0,12.9-5.8,12.9-12.9c0-4.3-2.1-8.1-5.3-10.4c0.9,0.2,1.8,0.3,2.7,0.3
		c7.2,0,12.9-5.8,12.9-12.9c0-7.1-5.8-12.9-12.9-12.9c-4.6,0-8.7,2.4-11,6.1c0.1-0.6,0.2-1.3,0.2-2c0-7.1-5.8-12.9-12.9-12.9
		c-7.1,0-12.9,5.8-12.9,12.9c0,4.3,2.1,8.1,5.2,10.4c-7.3-2.5-12.7-9.5-16.2-15.8l-5.7-13.1H123l20.3,58.9c-0.8-0.2-1.5-0.3-2.3-0.3
		c-6.4,0-11.6,5.1-11.6,11.6c0,6.4,5.1,11.6,11.6,11.6c3.5,0,6.7-1.6,8.8-4.1l25.4,73.9h41.1h37.8h3.3h23h2.6h3.1h5.5h19.8h3.3h37.8
		h41.1l25.4-73.9c2.1,2.5,5.3,4.1,8.8,4.1c6.4,0,11.6-5.1,11.6-11.6C439.3,195.2,434.2,190.1,427.8,190.1z M267.5,209.8v-3.5v0.1
		V209.8z M285.8,239c-0.3,1.3-0.4,1.3-0.5,0.3c-0.1,0.8-0.3,0.8-0.5-0.4c-1.7-8.6-9.4-18.8-9.4-18.8c9.4-11.1,9.4-21.4,9.4-21.4
		s0.1,3,0.3,7.4c0.1-4.3,0.1-7.3,0.1-7.3s0.2,10.3,9.8,21.2C294.9,220,287.3,230.4,285.8,239z M301.4,209.8v-3.5v-0.1V209.8z"/>
</g>
<g id="Lager_3">
	<g>
		<path d="M184.5,610.4h-22.3l-58.8-92.2v92.2H87.6l1.6-182.8h14.3v79.5l49.3-69.9l12.7,12.7l-50.9,63.6L184.5,610.4z"/>
		<path d="M279.7,566.9c0,7-1,13.4-3,18.9c-2.1,5.6-4.9,10.5-8.7,14.5s-8.4,7-14,9.2c-5.6,2.2-11.9,3.2-19.1,3.2
			c-7.9,0-14.6-1.1-20-3.2c-5.6-2.1-10-4.9-13.4-8.7c-3.5-3.8-6-8.3-7.6-13.7s-2.4-11.3-2.4-17.8V465.8l17.3,9.5v92.8
			c0,4.9,0.5,9.4,1.4,13c1,3.8,2.5,6.8,4.6,9.4c2.1,2.5,4.9,4.5,8.3,5.7c3.3,1.3,7.6,1.9,12.4,1.9c9.2,0,15.9-2.7,20.3-7.9
			c4.5-5.2,6.5-12.7,6.5-22.4v-83.8h17.3V566.9L279.7,566.9z"/>
		<path d="M388,610.9h-22.6l-37-79l-10.7-25.4v63.9v40.5h-16.1V484.1l24.3-2.4l33.1,77.4l12.7,29.1v-67.9l0.3-48.2l15.9-6.4V610.9z"
			/>
		<path d="M500.2,450.2c-4.8-2.5-9.5-4.5-14.6-5.9c-4.9-1.4-10.3-2.1-16.4-2.1c-6.7,0-12.7,1.3-18,3.7c-5.2,2.4-9.7,5.7-13.2,10.2
			c-3.7,4.5-6.4,9.5-8.3,15.7c-1.9,6.2-2.9,35.1-2.9,42.6c0,7.8,0.8,18.1,0.8,24.5c0,11.1-1.6,31.8,8.9,45.5
			c3.3,4.3,7.5,7.5,12.7,9.9c5.1,2.2,11.3,3.3,18.4,3.3c1.3,0,2.5,0,4-0.2c1.4-0.2,2.9-0.3,4.3-0.5c1.4-0.2,2.9-0.5,4.1-0.8
			c1.3-0.3,2.5-0.6,3.5-1.1v-73.8h-25.9V507h42.9v98.2c-2.7,1.3-5.4,2.4-8.4,3.3c-3,1-5.9,1.7-9.1,2.4c-3.2,0.6-6.2,1.1-9.2,1.4
			c-3,0.3-6,0.5-8.7,0.5c-8.7,0-16.5-1.3-23.4-4.1s-12.9-6.7-17.8-12.1c-4.9-5.4-8.6-11.9-11.3-19.9s-4-50.5-4-61
			c0-10.3,1.4-42,4.5-50.2c3-8.3,7-15.3,12.2-21c5.2-5.7,11.6-10.2,19.1-13c7.5-3,15.6-4.5,24.5-4.5c5.7,0,11.1,0.5,16.2,1.6
			c5.1,1,10,2.5,14.8,4.8L500.2,450.2L500.2,450.2z"/>
	</g>
	<text transform="matrix(1 0 0 1 79.428 699.6563)" class="st4 st5">FOTBOLL</text>
</g>
<g id="Lager_4" class="st0">
	<text transform="matrix(1 0 0 1 70.6016 617.0693)" class="st6 st4 st7">KUNG</text>
	<text transform="matrix(1 0 0 1 74.3525 702.4941)" class="st6 st4 st8">FOTBOLL</text>
</g>
</svg>
