<?xml version="1.0" encoding="utf-8"?>
<!-- Generator: Adobe Illustrator 23.0.3, SVG Export Plug-In . SVG Version: 6.00 Build 0)  -->
<svg version="1.1" xmlns="http://www.w3.org/2000/svg" xmlns:xlink="http://www.w3.org/1999/xlink" x="0px" y="0px"
	 viewBox="0 0 242.7 373.6" style="enable-background:new 0 0 242.7 373.6;" xml:space="preserve">
<style type="text/css">
	.st0{display:none;enable-background:new    ;}
	.st1{display:inline;}
	.st2{display:none;}
	.st3{display:none;fill:none;stroke:#FFFFFF;stroke-width:5;stroke-miterlimit:10;}
	.st4{display:none;fill:none;stroke:#FFFFFF;stroke-width:4;stroke-miterlimit:10;}
	.st5{display:none;stroke:#FFFFFF;stroke-width:5;stroke-miterlimit:10;}
	.st6{fill:none;}
	.st7{display:inline;fill:#FF780A;}
	.st8{stroke:#000000;stroke-miterlimit:10;}
</style>
<g id="Lager_1">
	<g class="st0">
		<path class="st1" d="M-11.6,465.2V309.4H1.8v65.5l28.4-44.3L41,341.5l-21.9,34.7l37.8,89H41.8l-31.3-75.3l-8.7,13.8v61.5H-11.6z"
			/>
		<path class="st1" d="M57.3,355.3l13.4,9.3v59c0,8.5,1.4,16.6,4.1,20.3c2.7,3.7,6.8,5.6,12.3,5.6h0.6c5.1,0,8.9-1.9,11.7-5.6
			c3.1-4.3,4.7-12.3,4.7-20.3v-46.3l13.4,1.6v44.7c0,13.9-2.9,24.8-8.8,32.7c-4.3,5.9-11.3,8.8-21,8.8h-0.6c-9.7,0-16.7-2.9-21-8.8
			c-5.8-8-8.8-18.9-8.8-32.7C57.3,423.6,57.3,355.3,57.3,355.3z"/>
		<path class="st1" d="M189.2,352.8v112.4h-16.4l-30-56.2h-0.6l-0.3,56.2h-13.4l0.2-86.1l15-2.2l31.4,61.8h0.6l0.1-75.8L189.2,352.8
			z"/>
		<path class="st1" d="M260.4,422c-0.9,19-7.6,28.9-7.6,28.9c-5.5,9.6-14.4,14.3-21.8,14.3c-6.6,0-12.3-3.2-16.9-9.6
			c-9-12.2-13.4-33.8-13.4-64.7c0-33,4.9-56.2,14.6-69.5c5.8-8,12.3-12,19.3-12c7.4,0,13.2,2.9,17.5,8.8c6.6,9.1,9.9,22.4,9.9,39.9
			h-12.3c-0.4-13.8-2.3-23.2-5.8-28c-2.7-3.7-5.8-5.6-9.3-5.6c-3.1,0-5.6,1.3-7.6,4c-8.6,11.7-12.8,32.5-12.8,62.3
			c0,26.1,3.1,43.4,9.3,51.9c3.1,4.3,6.2,6.4,9.3,6.4c3.9,0,7.4-2.1,10.5-6.4c4.7-6.4,7-17,7-32v-15.2h-18.1v-15.2H262L260.4,422z"
			/>
	</g>
	<path class="st2" d="M248.3,381.6c0,70.4-57.1,127.5-127.5,127.5S-6.7,452-6.7,381.6"/>
	<rect x="-6.7" y="349.6" class="st2" width="255" height="36"/>
	<path class="st3" d="M83.8,423.1c0,0,32,7,57,5c0,0,22-49,22-52s-43.5-39-43.5-39l-47.5,30L83.8,423.1z"/>
	<path class="st4" d="M136.8,498.1c0,0,18-14,29-31c0,0,37-8,44-13c0,0,3.2,15-3.4,22s-28.8,23.7-45.7,27.8
		C153.8,505.1,145.8,503.1,136.8,498.1z"/>
	<path class="st5" d="M210.8,454.1c0,0,23-44,21-51s-16-32-23-39l-46,12l-22,52l25,39C165.8,467.1,204.8,459.1,210.8,454.1z"/>
	<path class="st3" d="M55.8,458.1l28-35c0,0,32,6,57,5l25,39c0,0-13,20-29,31c0,0-22,4-54-5C82.8,493.1,68.8,483.1,55.8,458.1z"/>
	<path class="st3" d="M55.8,458.1c0,0-26-9-39-22c0,0-8-15-13-53c0,0,9-18,26-33.5c0,0.5,42,17.5,42,17.5"/>
	<path class="st4" d="M16.8,436.1c0,0-3,9,2,22S59.1,496,64,496.5s15.9,0.6,18.9-3.4"/>
	<path class="st4" d="M231.8,404.1c0,0,14-9,19.5-24.5"/>
	<path class="st4" d="M208.8,364.1c0,0,3-0.4,4.5-17.7"/>
	<path class="st4" d="M3.8,383.1c0,0-9-5.6-13.5-24.5"/>
	<g id="Lager_3" class="st2">
		<g class="st1">
			<path d="M19.8,670H-2.4l-58.8-92.2V670h-15.9l1.5-182.8h14.4v79.5l49.3-69.9l12.7,12.7l-50.9,63.6L19.8,670z"/>
			<path d="M115,626.4c0,7-1,13.4-3,18.9c-2.1,5.6-4.9,10.5-8.7,14.5s-8.4,7-14,9.2s-11.9,3.2-19.1,3.2c-7.9,0-14.6-1.1-20-3.2
				c-5.6-2.1-10-4.9-13.4-8.7c-3.5-3.8-6-8.3-7.6-13.7s-2.4-11.3-2.4-17.8V525.4l17.3,9.5v92.8c0,4.9,0.5,9.4,1.4,13
				c1,3.8,2.5,6.8,4.6,9.4c2.1,2.5,4.9,4.5,8.3,5.7c3.3,1.3,7.6,1.9,12.4,1.9c9.2,0,15.9-2.7,20.3-7.9c4.5-5.2,6.5-12.7,6.5-22.4
				v-83.8h17.3L115,626.4L115,626.4z"/>
			<path d="M223.3,670.5h-22.6l-37-79L153,566.1V630v40.5h-16.1V543.6l24.3-2.4l33.1,77.4l12.7,29.1v-67.9l0.3-48.2l15.9-6.4v145.3
				L223.3,670.5L223.3,670.5z"/>
			<path d="M335.5,509.8c-4.8-2.5-9.5-4.5-14.6-5.9c-4.9-1.4-10.3-2.1-16.4-2.1c-6.7,0-12.7,1.3-18,3.7s-9.7,5.7-13.2,10.2
				c-3.7,4.5-6.4,9.5-8.3,15.7s-2.9,35.1-2.9,42.6c0,7.8,0.8,18.1,0.8,24.5c0,11.1-1.6,31.8,8.9,45.5c3.3,4.3,7.5,7.5,12.7,9.9
				c5.1,2.2,11.3,3.3,18.4,3.3c1.3,0,2.5,0,4-0.2s2.9-0.3,4.3-0.5s2.9-0.5,4.1-0.8c1.3-0.3,2.5-0.6,3.5-1.1v-73.8h-25.9v-14.3h42.9
				v98.2c-2.7,1.3-5.4,2.4-8.4,3.3c-3,1-5.9,1.7-9.1,2.4c-3.2,0.6-6.2,1.1-9.2,1.4c-3,0.3-6,0.5-8.7,0.5c-8.7,0-16.5-1.3-23.4-4.1
				c-6.8-2.9-12.9-6.7-17.8-12.1c-4.9-5.4-8.6-11.9-11.3-19.9s-4-50.5-4-61c0-10.3,1.4-42,4.5-50.2c3-8.3,7-15.3,12.2-21
				s11.6-10.2,19.1-13c7.5-3,15.6-4.5,24.5-4.5c5.7,0,11.1,0.5,16.2,1.6c5.1,1,10,2.5,14.8,4.8L335.5,509.8L335.5,509.8z"/>
		</g>
		<text transform="matrix(1 0 0 1 -85.3481 759.1428)" class="st1" style="font-family:'Consolas'; font-size:109.6806px;">FOTBOLL</text>
	</g>
	<path class="st6" d="M84.1,249.8l36-22.4l9.5,7.2l24.4,21.8l-17.2,41.1c0,0-25.5-0.8-42.8-4.1L84.1,249.8z"/>
	<path d="M140.5,299.5l17.3-41.2l36.2-9.9c0,0,13.2,18.9,18.1,31.3c0,0-8.2,23.9-17.3,39.5c0,0-14,5.8-34.6,9.1L140.5,299.5z"/>
	<path d="M92.7,297.1c0,0,19.8,5.8,44.4,4.1l19.8,30.5c0,0-17.3,21.4-22.2,23c0,0-14,4.1-43.6-4.1c0,0-9.1-6.6-20.6-26.3L92.7,297.1
		z"/>
	<path d="M80.9,357.5c0,0,30,14.6,65.3,5.5c0-0.1-4.1-0.9-10.7-4.2c0,0-14.8,4.1-44.4-4.1C91.1,354.7,90.5,357,80.9,357.5z"/>
	<path d="M68,320.9l21.4-26.3L79.5,251l-32.1-14c0,0-13.2,12.3-19.8,25.5c0,0,6.6,38.7,10.7,42C38.4,304.5,49.1,315.2,68,320.9z"/>
	<path d="M35,319.6c0,0-20.5-26.3-18-66c0,0,4.1,8.9,6.6,8.9c0,0,5.8,37,10.7,43.6C34.3,306.1,32.4,314.2,35,319.6z"/>
	<path d="M196.3,334.9c0,0,26.5-21.9,30.6-66.5c0-0.2-9.1,10.5-11.5,11.4c0,0-5.8,25.5-18.1,42.8
		C197.3,322.6,198.5,330.1,196.3,334.9z"/>
	<g class="st0">
		<path class="st7" d="M-10.6,462.9V307.2H2.8v65.5l28.4-44.3L42,339.3L20.1,374l37.8,89H42.8l-31.3-75.3l-8.7,13.7v61.5H-10.6z"/>
		<path class="st7" d="M58.3,353l13.4,9.3v59c0,8.5,1.4,16.6,4.1,20.3c2.7,3.7,6.8,5.6,12.3,5.6h0.6c5.1,0,8.9-1.9,11.7-5.6
			c3.1-4.3,4.7-12.3,4.7-20.3V375l13.4,1.6v44.7c0,13.9-2.9,24.8-8.8,32.7c-4.3,5.9-11.3,8.8-21,8.8h-0.6c-9.7,0-16.7-2.9-21-8.8
			c-5.8-8-8.8-18.9-8.8-32.7C58.3,421.3,58.3,353,58.3,353z"/>
		<path class="st7" d="M190.2,350.5v112.4h-16.4l-30-56.2h-0.6l-0.3,56.2h-13.4l0.2-86.1l15-2.2l31.4,61.8h0.6l0.1-75.8L190.2,350.5
			z"/>
		<path class="st7" d="M261.4,419.8c-0.9,19-7.6,28.9-7.6,28.9c-5.5,9.6-14.4,14.3-21.8,14.3c-6.6,0-12.3-3.2-16.9-9.6
			c-9-12.2-13.4-33.8-13.4-64.7c0-33,4.9-56.2,14.6-69.5c5.8-8,12.3-12,19.3-12c7.4,0,13.2,2.9,17.5,8.8c6.6,9.1,9.9,22.4,9.9,39.9
			h-12.3c-0.4-13.8-2.3-23.2-5.8-28c-2.7-3.7-5.8-5.6-9.3-5.6c-3.1,0-5.6,1.3-7.6,4c-8.6,11.7-12.8,32.5-12.8,62.3
			c0,26.1,3.1,43.4,9.3,51.9c3.1,4.3,6.2,6.4,9.3,6.4c3.9,0,7.4-2.1,10.5-6.4c4.7-6.4,7-17,7-32v-15.2h-18.1v-15.2H263L261.4,419.8z
			"/>
	</g>
	<path class="st6" d="M25,259.4c0,0-6.9-4.5-6.6-21c0,0,3.1-17.4,16.7-37.4c0,0,6.2-5.6,16.1-5.7c0,0-7.7,12.4-6.8,36.5
		C44.4,231.8,28.9,249.4,25,259.4z"/>
	<path class="st6" d="M213.9,277.2c0,0,11.8-8.5,11.9-19.8c0.1-11.3-4.8-37.6-9.6-40.1c0,0-5.6-7.9-18.7-9.8c0,0,5.1,8.6,0,38.6
		C197.5,246.1,213.7,265.6,213.9,277.2z"/>
	<path d="M24.1,162.7"/>
	<rect x="36.8" y="183.7" width="168.6" height="8.1"/>
	<path d="M108.9,126.7v-2.6v0.1V126.7z M133.7,126.7v-2.6V124V126.7z"/>
	<path d="M188.4,195.3c2.7,2.6,5.5,5.5,8.3,8.7c0,0,9.1,0.3,17.6,8.3c0,0-4.3-7.9-11.8-17H188.4z"/>
	<path d="M183.4,195.3h-57.6c-2.4,33.2-1.5,29.3-1.5,29.3l33.5,28.9l36.2-9.1c3.5-25.7,1.1-36.3,1.1-36.3
		C191,203,187.1,198.8,183.4,195.3z"/>
	<path d="M54.8,195.3c-0.3,0.3-0.6,0.5-0.9,0.8c0,0-3.4,2.7-5.9,36.3l34.1,13.7c0,0,15-10.6,37-22.6l3-28.2H54.8z"/>
	<rect x="37" y="166.1" width="168.6" height="8.1"/>
</g>
<g id="Lager_2">
	<g>
		<path class="st8" d="M103.2,54.5c9.8,17.3,15.2,42.8,15.2,42.8l-4.2,0c0-3.7-2.1-18.9-8.9-29.1c-6.1-9.1-18.1-14.2-26.2-8.1
			c-23.4,17.5-0.2,36.3-0.2,36.3c2.7-31.4,29.2-6.9,26.9,0.8c0,0-7.3-1.2-7.4,5.2c-0.1,7.2,6.7,5.6,6.7,5.6
			c-6.7,21.9-20.2,4.8-20.2,4.8c-6.8,13,2.8,31.1,16.2,24.2c9.4-4.8,11.7-22.6,13.9-29.2h1.5c-7.6,42.4-17.2,42.9-28.8,33.5
			c-8.3-6.9-14-18.9-15-21.2c1.4-1.2,2.4-3.4,2.4-5.9c0-3.8-2.1-6.8-4.7-6.8c-2.6,0-4.7,3-4.7,6.8c0,2.9,1.3,5.4,3,6.3
			c-0.6,2.4-2.8,9.8-10.3,20.8c-13.1,19.2-25.9-16.7-25.9-16.7s9.4,15.8,18.6,10.7c13.1-7.1,2.2-19.3,2.2-19.3
			C50,131.3,39,121.6,39,121.6c2.1-2.6,4.6-2,3.1-5.5c-1.7-4-5.6-1.2-5.6-1.2c2.5-26,17.7-10,17.7-10C64.8,88.2,45,77.7,34.7,89.7
			s-5.1,28.4-5.1,28.4c-6.9-3.5,0-24.3-5.8-34.3c-5.8-10-19.6-13.7-19.6-13.7c38,83.2,37.1,96,37.1,96h79.6V8.2
			C120.8,8.2,93.3,37.3,103.2,54.5z"/>
		<path class="st8" d="M238.5,70.1c0,0-13.9,3.7-19.6,13.7c-5.8,10,1.1,30.8-5.8,34.3c0,0,5.1-16.3-5.1-28.4s-30.1-1.5-19.5,15.2
			c0,0,15.2-16,17.7,10c0,0-3.9-2.8-5.6,1.2c-1.5,3.5,1,2.9,3.1,5.5c0,0-10.9,9.7-14.1-5.6c0,0-10.9,12.1,2.2,19.3
			c9.2,5,18.6-10.7,18.6-10.7s-12.8,35.9-25.9,16.7c-7.5-11-9.7-18.4-10.3-20.8c1.8-1,3-3.5,3-6.3c0-3.8-2.1-6.8-4.7-6.8
			c-2.6,0-4.7,3-4.7,6.8c0,2.5,1,4.7,2.4,5.9c-1,2.3-6.7,14.4-15,21.2c-11.5,9.5-21.2,9-28.8-33.5h1.5c2.2,6.6,4.5,24.4,13.9,29.2
			c13.4,6.8,22.9-11.2,16.2-24.2c0,0-13.6,17.1-20.2-4.8c0,0,6.8,1.7,6.7-5.6c-0.1-6.3-7.4-5.2-7.4-5.2c-2.3-7.7,24.2-32.2,26.9-0.8
			c0,0,23.2-18.8-0.2-36.3c-8.1-6.1-20-1-26.2,8.1c-6.9,10.2-8.9,25.4-8.9,29.1l-4.2,0c0,0,5.4-25.5,15.2-42.8S121.8,8.2,121.8,8.2
			v157.9h79.6C201.4,166.1,200.5,153.3,238.5,70.1z"/>
	</g>
	<path d="M48,174.2v9.5h148.3v-9.5H48z M58.8,183.3c-2.4,0-4.4-2-4.4-4.4s2-4.4,4.4-4.4s4.4,2,4.4,4.4S61.3,183.3,58.8,183.3z
		 M75.2,183.3c-2.4,0-4.4-2-4.4-4.4s2-4.4,4.4-4.4s4.4,2,4.4,4.4S77.6,183.3,75.2,183.3z M90.4,183.3c-2.4,0-4.4-2-4.4-4.4
		s2-4.4,4.4-4.4s4.4,2,4.4,4.4S92.8,183.3,90.4,183.3z M107.1,183.4c-2.4,0-4.4-2-4.4-4.4s2-4.4,4.4-4.4s4.4,2,4.4,4.4
		S109.5,183.4,107.1,183.4z M123.5,183.4c-2.4,0-4.4-2-4.4-4.4s2-4.4,4.4-4.4s4.4,2,4.4,4.4S125.9,183.4,123.5,183.4z M138.6,183.4
		c-2.4,0-4.4-2-4.4-4.4s2-4.4,4.4-4.4s4.4,2,4.4,4.4S141,183.4,138.6,183.4z M154.5,183.3c-2.4,0-4.4-2-4.4-4.4s2-4.4,4.4-4.4
		s4.4,2,4.4,4.4S156.9,183.3,154.5,183.3z M170.9,183.3c-2.4,0-4.4-2-4.4-4.4s2-4.4,4.4-4.4s4.4,2,4.4,4.4S173.3,183.3,170.9,183.3z
		 M186.1,183.3c-2.4,0-4.4-2-4.4-4.4s2-4.4,4.4-4.4s4.4,2,4.4,4.4S188.5,183.3,186.1,183.3z"/>
</g>
<g id="Lager_3_1_">
</g>
</svg>
