<?xml version="1.0" encoding="utf-8"?>
<!-- Generator: Adobe Illustrator 23.0.3, SVG Export Plug-In . SVG Version: 6.00 Build 0)  -->
<svg version="1.1" id="Lager_1" xmlns="http://www.w3.org/2000/svg" xmlns:xlink="http://www.w3.org/1999/xlink" x="0px" y="0px"
	 viewBox="0 0 446.2 518.7" style="enable-background:new 0 0 446.2 518.7;" xml:space="preserve">
<style type="text/css">
	.st0{display:none;enable-background:new    ;}
	.st1{display:inline;}
	.st2{display:none;}
	.st3{display:none;fill:none;stroke:#FFFFFF;stroke-width:5;stroke-miterlimit:10;}
	.st4{display:none;fill:none;stroke:#FFFFFF;stroke-width:4;stroke-miterlimit:10;}
	.st5{display:none;stroke:#FFFFFF;stroke-width:5;stroke-miterlimit:10;}
	.st6{display:inline;enable-background:new    ;}
	.st7{display:inline;fill:#FF780A;}
	.st8{enable-background:new    ;}
	.st9{fill:#FFFFFF;}
	.st10{stroke:#000000;stroke-miterlimit:10;}
	.st11{fill:#FF780A;}
</style>
<g>
	<g class="st0">
		<path class="st1" d="M88.5,465.2V309.4h13.4v65.5l28.4-44.3l10.8,10.9l-21.9,34.7l37.8,89h-15.1l-31.3-75.3l-8.7,13.8v61.5H88.5z"
			/>
		<path class="st1" d="M157.4,355.3l13.4,9.3v59c0,8.5,1.4,16.6,4.1,20.3c2.7,3.7,6.8,5.6,12.3,5.6h0.6c5.1,0,8.9-1.9,11.7-5.6
			c3.1-4.3,4.7-12.3,4.7-20.3v-46.3l13.4,1.6v44.7c0,13.9-2.9,24.8-8.8,32.7c-4.3,5.9-11.3,8.8-21,8.8h-0.6c-9.7,0-16.7-2.9-21-8.8
			c-5.8-8-8.8-18.9-8.8-32.7C157.4,423.6,157.4,355.3,157.4,355.3z"/>
		<path class="st1" d="M289.3,352.8v112.4h-16.4l-30-56.2h-0.6l-0.3,56.2h-13.4l0.2-86.1l15-2.2l31.4,61.8h0.6l0.1-75.8L289.3,352.8
			z"/>
		<path class="st1" d="M360.5,422c-0.9,19-7.6,28.9-7.6,28.9c-5.5,9.6-14.4,14.3-21.8,14.3c-6.6,0-12.3-3.2-16.9-9.6
			c-9-12.2-13.4-33.8-13.4-64.7c0-33,4.9-56.2,14.6-69.5c5.8-8,12.3-12,19.3-12c7.4,0,13.2,2.9,17.5,8.8c6.6,9.1,9.9,22.4,9.9,39.9
			h-12.3c-0.4-13.8-2.3-23.2-5.8-28c-2.7-3.7-5.8-5.6-9.3-5.6c-3.1,0-5.6,1.3-7.6,4c-8.6,11.7-12.8,32.5-12.8,62.3
			c0,26.1,3.1,43.4,9.3,51.9c3.1,4.3,6.2,6.4,9.3,6.4c3.9,0,7.4-2.1,10.5-6.4c4.7-6.4,7-17,7-32v-15.2h-18.1v-15.2h29.8L360.5,422z"
			/>
	</g>
	<path class="st2" d="M348.4,381.6c0,70.4-57.1,127.5-127.5,127.5S93.4,452,93.4,381.6"/>
	<rect x="93.4" y="349.6" class="st2" width="255" height="36"/>
	<path class="st3" d="M183.9,423.1c0,0,32,7,57,5c0,0,22-49,22-52s-43.5-39-43.5-39l-47.5,30L183.9,423.1z"/>
	<path class="st4" d="M236.9,498.1c0,0,18-14,29-31c0,0,37-8,44-13c0,0,3.2,15-3.4,22s-28.8,23.7-45.7,27.8
		C253.9,505.1,245.9,503.1,236.9,498.1z"/>
	<path class="st5" d="M310.9,454.1c0,0,23-44,21-51s-16-32-23-39l-46,12l-22,52l25,39C265.9,467.1,304.9,459.1,310.9,454.1z"/>
	<path class="st3" d="M155.9,458.1l28-35c0,0,32,6,57,5l25,39c0,0-13,20-29,31c0,0-22,4-54-5C182.9,493.1,168.9,483.1,155.9,458.1z"
		/>
	<path class="st3" d="M155.9,458.1c0,0-26-9-39-22c0,0-8-15-13-53c0,0,9-18,26-33.5c0,0.5,42,17.5,42,17.5"/>
	<path class="st4" d="M116.9,436.1c0,0-3,9,2,22s40.3,37.9,45.2,38.4s15.9,0.6,18.9-3.4"/>
	<path class="st4" d="M331.9,404.1c0,0,14-9,19.5-24.5"/>
	<path class="st4" d="M308.9,364.1c0,0,3-0.4,4.5-17.7"/>
	<path class="st4" d="M103.9,383.1c0,0-9-5.6-13.5-24.5"/>
	<g id="Lager_3" class="st2">
		<g class="st1">
			<path d="M119.9,670H97.7l-58.8-92.2V670H23l1.5-182.8h14.4v79.5l49.3-69.9l12.7,12.7L50,573.1L119.9,670z"/>
			<path d="M215.1,626.4c0,7-1,13.4-3,18.9c-2.1,5.6-4.9,10.5-8.7,14.5s-8.4,7-14,9.2s-11.9,3.2-19.1,3.2c-7.9,0-14.6-1.1-20-3.2
				c-5.6-2.1-10-4.9-13.4-8.7c-3.5-3.8-6-8.3-7.6-13.7c-1.6-5.4-2.4-11.3-2.4-17.8V525.4l17.3,9.5v92.8c0,4.9,0.5,9.4,1.4,13
				c1,3.8,2.5,6.8,4.6,9.4c2.1,2.5,4.9,4.5,8.3,5.7c3.3,1.3,7.6,1.9,12.4,1.9c9.2,0,15.9-2.7,20.3-7.9c4.5-5.2,6.5-12.7,6.5-22.4
				v-83.8H215L215.1,626.4L215.1,626.4z"/>
			<path d="M323.4,670.5h-22.6l-37-79l-10.7-25.4V630v40.5H237V543.6l24.3-2.4l33.1,77.4l12.7,29.1v-67.9l0.3-48.2l15.9-6.4v145.3
				L323.4,670.5L323.4,670.5z"/>
			<path d="M435.6,509.8c-4.8-2.5-9.5-4.5-14.6-5.9c-4.9-1.4-10.3-2.1-16.4-2.1c-6.7,0-12.7,1.3-18,3.7s-9.7,5.7-13.2,10.2
				c-3.7,4.5-6.4,9.5-8.3,15.7s-2.9,35.1-2.9,42.6c0,7.8,0.8,18.1,0.8,24.5c0,11.1-1.6,31.8,8.9,45.5c3.3,4.3,7.5,7.5,12.7,9.9
				c5.1,2.2,11.3,3.3,18.4,3.3c1.3,0,2.5,0,4-0.2s2.9-0.3,4.3-0.5s2.9-0.5,4.1-0.8c1.3-0.3,2.5-0.6,3.5-1.1v-73.8H393v-14.3h42.9
				v98.2c-2.7,1.3-5.4,2.4-8.4,3.3c-3,1-5.9,1.7-9.1,2.4c-3.2,0.6-6.2,1.1-9.2,1.4c-3,0.3-6,0.5-8.7,0.5c-8.7,0-16.5-1.3-23.4-4.1
				c-6.8-2.9-12.9-6.7-17.8-12.1c-4.9-5.4-8.6-11.9-11.3-19.9s-4-50.5-4-61c0-10.3,1.4-42,4.5-50.2c3-8.3,7-15.3,12.2-21
				s11.6-10.2,19.1-13c7.5-3,15.6-4.5,24.5-4.5c5.7,0,11.1,0.5,16.2,1.6c5.1,1,10,2.5,14.8,4.8L435.6,509.8L435.6,509.8z"/>
		</g>
		<g class="st6">
			<path d="M65.2,697.3H35.5V720h28.2v8H35.5v31.2h-9.7v-70h39.5V697.3z"/>
			<path d="M132.4,723.7c0,6.3-0.7,11.7-2.2,16.3c-1.5,4.6-3.5,8.3-6,11.3c-2.5,3-5.5,5.2-8.8,6.6s-6.9,2.2-10.7,2.2
				c-4.5,0-8.4-0.8-11.8-2.4s-6.1-4-8.3-7c-2.2-3.1-3.8-6.8-4.9-11.2c-1.1-4.4-1.6-9.4-1.6-14.9c0-6.2,0.7-11.6,2.2-16.2
				c1.5-4.6,3.5-8.3,6-11.3c2.5-3,5.5-5.2,8.8-6.6c3.4-1.4,6.9-2.2,10.7-2.2c4.5,0,8.4,0.8,11.8,2.5c3.3,1.6,6.1,4,8.3,7
				c2.2,3.1,3.9,6.8,5,11.2C131.8,713.2,132.4,718.2,132.4,723.7z M122.5,724.4c0-4.1-0.3-7.9-0.9-11.3c-0.6-3.4-1.6-6.3-3-8.8
				c-1.4-2.5-3.2-4.4-5.4-5.7s-4.8-2-8-2c-3,0-5.6,0.7-7.7,2.2c-2.2,1.4-3.9,3.4-5.3,5.9c-1.4,2.5-2.4,5.4-3.1,8.7
				c-0.7,3.3-1,6.9-1,10.6c0,4.1,0.3,7.9,1,11.3s1.7,6.3,3,8.8c1.4,2.4,3.2,4.3,5.3,5.7c2.2,1.4,4.8,2,7.9,2c3,0,5.6-0.7,7.8-2.2
				c2.2-1.4,4-3.4,5.4-5.9c1.4-2.5,2.5-5.4,3.1-8.7C122.1,731.7,122.5,728.2,122.5,724.4z"/>
			<path d="M191,697.3h-20.7v61.9h-9.6v-61.9h-20.7v-8.1H191V697.3z"/>
			<path d="M250,738.2c0,3.4-0.7,6.3-2,8.9c-1.3,2.6-3.2,4.8-5.6,6.6c-2.4,1.8-5.3,3.1-8.7,4.1c-3.4,0.9-7.2,1.4-11.4,1.4h-18.3v-70
				h20c15.6,0,23.4,5.7,23.4,17c0,3.8-0.9,7-2.7,9.7c-1.8,2.7-4.7,4.7-8.8,6.1c1.9,0.4,3.7,1,5.4,1.8c1.7,0.9,3.2,2,4.5,3.3
				c1.3,1.4,2.3,3,3.1,4.8C249.7,733.8,250,735.9,250,738.2z M237.6,707.5c0-1.4-0.2-2.8-0.6-4s-1.2-2.4-2.2-3.3
				c-1.1-0.9-2.5-1.6-4.3-2.2c-1.8-0.5-4.1-0.8-6.9-0.8h-9.9v21.9h9.5c2.2,0,4.2-0.2,5.9-0.7s3.3-1.2,4.6-2.1s2.3-2.2,2.9-3.6
				C237.3,711.2,237.6,709.5,237.6,707.5z M239.9,738.5c0-1.8-0.4-3.4-1.1-4.8c-0.8-1.4-1.8-2.6-3.3-3.6c-1.4-1-3.2-1.7-5.2-2.3
				c-2.1-0.5-4.4-0.8-6.9-0.8h-9.7v24.1h10.1c5.5,0,9.5-1,12.2-3.1S239.9,742.8,239.9,738.5z"/>
			<path d="M313.3,723.7c0,6.3-0.7,11.7-2.2,16.3c-1.5,4.6-3.5,8.3-6,11.3c-2.5,3-5.5,5.2-8.8,6.6s-6.9,2.2-10.7,2.2
				c-4.5,0-8.4-0.8-11.8-2.4c-3.3-1.6-6.1-4-8.3-7c-2.2-3.1-3.8-6.8-4.9-11.2c-1.1-4.4-1.6-9.4-1.6-14.9c0-6.2,0.7-11.6,2.2-16.2
				c1.5-4.6,3.5-8.3,6-11.3c2.5-3,5.5-5.2,8.8-6.6c3.4-1.4,6.9-2.2,10.7-2.2c4.5,0,8.4,0.8,11.8,2.5c3.3,1.6,6.1,4,8.3,7
				c2.2,3.1,3.9,6.8,5,11.2C312.8,713.2,313.3,718.2,313.3,723.7z M303.4,724.4c0-4.1-0.3-7.9-0.9-11.3c-0.6-3.4-1.6-6.3-3-8.8
				c-1.4-2.5-3.2-4.4-5.4-5.7c-2.2-1.4-4.8-2-8-2c-3,0-5.6,0.7-7.7,2.2c-2.2,1.4-3.9,3.4-5.3,5.9c-1.4,2.5-2.4,5.4-3.1,8.7
				c-0.7,3.3-1,6.9-1,10.6c0,4.1,0.3,7.9,1,11.3s1.7,6.3,3,8.8c1.4,2.4,3.2,4.3,5.3,5.7c2.2,1.4,4.8,2,7.9,2c3,0,5.6-0.7,7.8-2.2
				s4-3.4,5.4-5.9c1.4-2.5,2.5-5.4,3.1-8.7C303.1,731.7,303.4,728.2,303.4,724.4z"/>
			<path d="M369,759.1h-40.3v-70h9.7V751H369V759.1z"/>
			<path d="M429.3,759.1H389v-70h9.7V751h30.6V759.1z"/>
		</g>
	</g>
	<path d="M240.6,299.5l17.3-41.2l36.2-9.9c0,0,13.2,18.9,18.1,31.3c0,0-8.2,23.9-17.3,39.5c0,0-14,5.8-34.6,9.1L240.6,299.5z"/>
	<path d="M192.8,297.1c0,0,19.8,5.8,44.4,4.1l19.8,30.5c0,0-17.3,21.4-22.2,23c0,0-14,4.1-43.6-4.1c0,0-9.1-6.6-20.6-26.3
		L192.8,297.1z"/>
	<path d="M181,357.5c0,0,30,14.6,65.3,5.5c0-0.1-4.1-0.9-10.7-4.2c0,0-14.8,4.1-44.4-4.1C191.2,354.7,190.6,357,181,357.5z"/>
	<path d="M168.1,320.9l21.4-26.3l-9.9-43.6l-32.1-14c0,0-13.2,12.3-19.8,25.5c0,0,6.6,38.7,10.7,42
		C138.5,304.5,149.2,315.2,168.1,320.9z"/>
	<path d="M135.1,319.6c0,0-20.5-26.3-18-66c0,0,4.1,8.9,6.6,8.9c0,0,5.8,37,10.7,43.6C134.4,306.1,132.5,314.2,135.1,319.6z"/>
	<path d="M296.4,334.9c0,0,26.5-21.9,30.6-66.5c0-0.2-9.1,10.5-11.5,11.4c0,0-5.8,25.5-18.1,42.8
		C297.4,322.6,298.6,330.1,296.4,334.9z"/>
	<g class="st0">
		<path class="st7" d="M89.5,462.9V307.2h13.4v65.5l28.4-44.3l10.8,10.9L120.2,374l37.8,89h-15.1l-31.3-75.3l-8.7,13.7v61.5
			L89.5,462.9L89.5,462.9z"/>
		<path class="st7" d="M158.4,353l13.4,9.3v59c0,8.5,1.4,16.6,4.1,20.3c2.7,3.7,6.8,5.6,12.3,5.6h0.6c5.1,0,8.9-1.9,11.7-5.6
			c3.1-4.3,4.7-12.3,4.7-20.3V375l13.4,1.6v44.7c0,13.9-2.9,24.8-8.8,32.7c-4.3,5.9-11.3,8.8-21,8.8h-0.6c-9.7,0-16.7-2.9-21-8.8
			c-5.8-8-8.8-18.9-8.8-32.7C158.4,421.3,158.4,353,158.4,353z"/>
		<path class="st7" d="M290.3,350.5v112.4h-16.4l-30-56.2h-0.6l-0.3,56.2h-13.4l0.2-86.1l15-2.2l31.4,61.8h0.6l0.1-75.8L290.3,350.5
			z"/>
		<path class="st7" d="M361.5,419.8c-0.9,19-7.6,28.9-7.6,28.9c-5.5,9.6-14.4,14.3-21.8,14.3c-6.6,0-12.3-3.2-16.9-9.6
			c-9-12.2-13.4-33.8-13.4-64.7c0-33,4.9-56.2,14.6-69.5c5.8-8,12.3-12,19.3-12c7.4,0,13.2,2.9,17.5,8.8c6.6,9.1,9.9,22.4,9.9,39.9
			h-12.3c-0.4-13.8-2.3-23.2-5.8-28c-2.7-3.7-5.8-5.6-9.3-5.6c-3.1,0-5.6,1.3-7.6,4c-8.6,11.7-12.8,32.5-12.8,62.3
			c0,26.1,3.1,43.4,9.3,51.9c3.1,4.3,6.2,6.4,9.3,6.4c3.9,0,7.4-2.1,10.5-6.4c4.7-6.4,7-17,7-32v-15.2h-18.1v-15.2h29.8L361.5,419.8
			z"/>
	</g>
	<g class="st8">
		<path class="st9" d="M137.2,475.7h-16v12.2h15.1v4.3h-15.1V509H116v-37.6h21.2V475.7z"/>
		<path class="st9" d="M173.3,489.9c0,3.4-0.4,6.3-1.2,8.7c-0.8,2.5-1.9,4.5-3.2,6.1c-1.4,1.6-2.9,2.8-4.7,3.6
			c-1.8,0.8-3.7,1.2-5.7,1.2c-2.4,0-4.5-0.4-6.3-1.3s-3.3-2.1-4.5-3.8c-1.2-1.6-2.1-3.7-2.6-6s-0.9-5-0.9-8c0-3.3,0.4-6.2,1.2-8.7
			c0.8-2.5,1.9-4.5,3.2-6.1c1.4-1.6,2.9-2.8,4.7-3.6c1.8-0.8,3.7-1.2,5.7-1.2c2.4,0,4.5,0.4,6.3,1.3c1.8,0.9,3.3,2.1,4.5,3.8
			c1.2,1.6,2.1,3.6,2.7,6C173,484.3,173.3,487,173.3,489.9z M168,490.3c0-2.2-0.2-4.2-0.5-6.1c-0.3-1.8-0.9-3.4-1.6-4.7
			c-0.7-1.3-1.7-2.3-2.9-3.1c-1.2-0.7-2.6-1.1-4.3-1.1c-1.6,0-3,0.4-4.2,1.2c-1.2,0.8-2.1,1.8-2.9,3.2c-0.7,1.3-1.3,2.9-1.7,4.7
			c-0.4,1.8-0.5,3.7-0.5,5.7c0,2.2,0.2,4.3,0.5,6.1c0.3,1.8,0.9,3.4,1.6,4.7c0.7,1.3,1.7,2.3,2.9,3.1c1.2,0.7,2.6,1.1,4.2,1.1
			c1.6,0,3-0.4,4.2-1.2c1.2-0.8,2.1-1.8,2.9-3.2s1.3-2.9,1.7-4.7S168,492.3,168,490.3z"/>
		<path class="st9" d="M204.8,475.7h-11.1V509h-5.2v-33.2h-11.1v-4.4h27.4V475.7z"/>
		<path class="st9" d="M236.5,497.7c0,1.8-0.3,3.4-1,4.8c-0.7,1.4-1.7,2.6-3,3.5s-2.9,1.7-4.7,2.2c-1.8,0.5-3.9,0.7-6.1,0.7h-9.8
			v-37.6h10.8c8.4,0,12.6,3,12.6,9.1c0,2-0.5,3.8-1.5,5.2c-1,1.5-2.5,2.5-4.7,3.3c1,0.2,2,0.5,2.9,1c0.9,0.5,1.7,1.1,2.4,1.8
			s1.2,1.6,1.6,2.6C236.3,495.3,236.5,496.5,236.5,497.7z M229.8,481.2c0-0.8-0.1-1.5-0.3-2.2c-0.2-0.7-0.6-1.3-1.2-1.8
			s-1.4-0.9-2.3-1.2c-1-0.3-2.2-0.4-3.7-0.4h-5.3v11.8h5.1c1.2,0,2.2-0.1,3.2-0.4c0.9-0.2,1.8-0.6,2.4-1.2s1.2-1.2,1.6-1.9
			S229.8,482.3,229.8,481.2z M231,497.9c0-1-0.2-1.8-0.6-2.6c-0.4-0.8-1-1.4-1.8-1.9c-0.8-0.5-1.7-0.9-2.8-1.2
			c-1.1-0.3-2.3-0.4-3.7-0.4h-5.2v12.9h5.4c2.9,0,5.1-0.5,6.6-1.6C230.3,501.9,231,500.2,231,497.9z"/>
		<path class="st9" d="M270.5,489.9c0,3.4-0.4,6.3-1.2,8.7c-0.8,2.5-1.9,4.5-3.2,6.1c-1.4,1.6-2.9,2.8-4.7,3.6
			c-1.8,0.8-3.7,1.2-5.7,1.2c-2.4,0-4.5-0.4-6.3-1.3s-3.3-2.1-4.5-3.8c-1.2-1.6-2.1-3.7-2.6-6s-0.9-5-0.9-8c0-3.3,0.4-6.2,1.2-8.7
			c0.8-2.5,1.9-4.5,3.2-6.1c1.4-1.6,2.9-2.8,4.7-3.6c1.8-0.8,3.7-1.2,5.7-1.2c2.4,0,4.5,0.4,6.3,1.3c1.8,0.9,3.3,2.1,4.5,3.8
			c1.2,1.6,2.1,3.6,2.7,6S270.5,487,270.5,489.9z M265.1,490.3c0-2.2-0.2-4.2-0.5-6.1c-0.3-1.8-0.9-3.4-1.6-4.7
			c-0.7-1.3-1.7-2.3-2.9-3.1c-1.2-0.7-2.6-1.1-4.3-1.1c-1.6,0-3,0.4-4.2,1.2s-2.1,1.8-2.9,3.2c-0.7,1.3-1.3,2.9-1.7,4.7
			c-0.4,1.8-0.5,3.7-0.5,5.7c0,2.2,0.2,4.3,0.5,6.1c0.3,1.8,0.9,3.4,1.6,4.7c0.7,1.3,1.7,2.3,2.9,3.1c1.2,0.7,2.6,1.1,4.2,1.1
			c1.6,0,3-0.4,4.2-1.2c1.2-0.8,2.1-1.8,2.9-3.2c0.8-1.3,1.3-2.9,1.7-4.7S265.1,492.3,265.1,490.3z"/>
		<path class="st9" d="M300.4,509h-21.6v-37.6h5.2v33.2h16.4V509z"/>
		<path class="st9" d="M332.7,509h-21.6v-37.6h5.2v33.2h16.4V509z"/>
	</g>
	<path d="M124.2,162.7"/>
	<rect x="136.9" y="183.7" width="168.6" height="8.1"/>
	<path d="M209,126.7v-2.6v0.1V126.7z M233.8,126.7v-2.6V124V126.7z"/>
	<path d="M288.5,195.3c2.7,2.6,5.5,5.5,8.3,8.7c0,0,9.1,0.3,17.6,8.3c0,0-4.3-7.9-11.8-17H288.5z"/>
	<path d="M283.5,195.3h-57.6c-2.4,33.2-1.5,29.3-1.5,29.3l33.5,28.9l36.2-9.1c3.5-25.7,1.1-36.3,1.1-36.3
		C291.1,203,287.2,198.8,283.5,195.3z"/>
	<path d="M154.9,195.3c-0.3,0.3-0.6,0.5-0.9,0.8c0,0-3.4,2.7-5.9,36.3l34.1,13.7c0,0,15-10.6,37-22.6l3-28.2H154.9z"/>
	<rect x="137.1" y="166.1" width="168.6" height="8.1"/>
</g>
<g>
	<g>
		<path class="st10" d="M203.2,54.5c9.8,17.3,15.2,42.8,15.2,42.8h-4.2c0-3.7-2.1-18.9-8.9-29.1c-6.1-9.1-18.1-14.2-26.2-8.1
			c-23.4,17.5-0.2,36.3-0.2,36.3c2.7-31.4,29.2-6.9,26.9,0.8c0,0-7.3-1.2-7.4,5.2c-0.1,7.2,6.7,5.6,6.7,5.6
			c-6.7,21.9-20.2,4.8-20.2,4.8c-6.8,13,2.8,31.1,16.2,24.2c9.4-4.8,11.7-22.6,13.9-29.2h1.5c-7.6,42.4-17.2,42.9-28.8,33.5
			c-8.3-6.9-14-18.9-15-21.2c1.4-1.2,2.4-3.4,2.4-5.9c0-3.8-2.1-6.8-4.7-6.8c-2.6,0-4.7,3-4.7,6.8c0,2.9,1.3,5.4,3,6.3
			c-0.6,2.4-2.8,9.8-10.3,20.8c-13.1,19.2-25.9-16.7-25.9-16.7s9.4,15.8,18.6,10.7c13.1-7.1,2.2-19.3,2.2-19.3
			c-3.2,15.2-14.1,5.6-14.1,5.6c2.1-2.6,4.6-2,3.1-5.5c-1.7-4-5.6-1.2-5.6-1.2c2.5-26,17.7-10,17.7-10c10.6-16.7-9.3-27.2-19.5-15.2
			s-5.1,28.4-5.1,28.4c-6.9-3.5,0-24.3-5.8-34.3s-19.6-13.7-19.6-13.7c38,83.2,37.1,96,37.1,96h79.6V8.2
			C220.9,8.2,193.4,37.3,203.2,54.5z"/>
		<path class="st10" d="M338.5,70.1c0,0-13.9,3.7-19.6,13.7c-5.8,10,1.1,30.8-5.8,34.3c0,0,5.1-16.3-5.1-28.4s-30.1-1.5-19.5,15.2
			c0,0,15.2-16,17.7,10c0,0-3.9-2.8-5.6,1.2c-1.5,3.5,1,2.9,3.1,5.5c0,0-10.9,9.7-14.1-5.6c0,0-10.9,12.1,2.2,19.3
			c9.2,5,18.6-10.7,18.6-10.7s-12.8,35.9-25.9,16.7c-7.5-11-9.7-18.4-10.3-20.8c1.8-1,3-3.5,3-6.3c0-3.8-2.1-6.8-4.7-6.8
			s-4.7,3-4.7,6.8c0,2.5,1,4.7,2.4,5.9c-1,2.3-6.7,14.4-15,21.2c-11.5,9.5-21.2,9-28.8-33.5h1.5c2.2,6.6,4.5,24.4,13.9,29.2
			c13.4,6.8,22.9-11.2,16.2-24.2c0,0-13.6,17.1-20.2-4.8c0,0,6.8,1.7,6.7-5.6c-0.1-6.3-7.4-5.2-7.4-5.2c-2.3-7.7,24.2-32.2,26.9-0.8
			c0,0,23.2-18.8-0.2-36.3c-8.1-6.1-20-1-26.2,8.1c-6.9,10.2-8.9,25.4-8.9,29.1h-4.2c0,0,5.4-25.5,15.2-42.8S221.9,8.2,221.9,8.2
			v157.9h79.6C301.5,166.1,300.5,153.3,338.5,70.1z"/>
	</g>
	<path d="M148.1,174.2v9.5h148.3v-9.5H148.1z M158.9,183.3c-2.4,0-4.4-2-4.4-4.4s2-4.4,4.4-4.4s4.4,2,4.4,4.4
		S161.3,183.3,158.9,183.3z M175.3,183.3c-2.4,0-4.4-2-4.4-4.4s2-4.4,4.4-4.4s4.4,2,4.4,4.4S177.7,183.3,175.3,183.3z M190.5,183.3
		c-2.4,0-4.4-2-4.4-4.4s2-4.4,4.4-4.4s4.4,2,4.4,4.4S192.9,183.3,190.5,183.3z M207.2,183.4c-2.4,0-4.4-2-4.4-4.4s2-4.4,4.4-4.4
		s4.4,2,4.4,4.4S209.6,183.4,207.2,183.4z M223.5,183.4c-2.4,0-4.4-2-4.4-4.4s2-4.4,4.4-4.4s4.4,2,4.4,4.4S225.9,183.4,223.5,183.4z
		 M238.7,183.4c-2.4,0-4.4-2-4.4-4.4s2-4.4,4.4-4.4s4.4,2,4.4,4.4S241.1,183.4,238.7,183.4z M254.6,183.3c-2.4,0-4.4-2-4.4-4.4
		s2-4.4,4.4-4.4s4.4,2,4.4,4.4S257,183.3,254.6,183.3z M271,183.3c-2.4,0-4.4-2-4.4-4.4s2-4.4,4.4-4.4s4.4,2,4.4,4.4
		S273.4,183.3,271,183.3z M286.1,183.3c-2.4,0-4.4-2-4.4-4.4s2-4.4,4.4-4.4s4.4,2,4.4,4.4S288.5,183.3,286.1,183.3z"/>
</g>
<g id="Lager_3_1_">
	<g>
		<path class="st11" d="M3.7,322.6h10.4v130.3H3.7V322.6z M9.7,432.4h14.7c4.3,0,7.6-2.2,10-6.6s3.5-10.7,3.5-18.8v-38.4
			c0-8.1-1.2-14.4-3.5-18.8c-2.4-4.4-5.7-6.6-10-6.6H9.7v-20.5h14.5c5.2,0,9.6,1.8,13.2,5.5c3.7,3.6,6.5,9,8.4,16s2.9,15.4,2.9,25.3
			v36.9c0,9.6-0.9,17.9-2.8,24.9c-1.9,7-4.7,12.4-8.3,16.1c-3.7,3.8-8.1,5.6-13.4,5.6H9.7V432.4z"/>
		<path class="st11" d="M59.1,322.5h10.4v130.4H59.1V322.5z M63.4,378.6h21.8c1.4,0,2.7-0.7,3.8-2.2c1.1-1.5,2-3.5,2.6-6.2
			s0.9-5.8,1-9.4c0-3.5-0.3-6.6-0.9-9.3c-0.6-2.7-1.5-4.8-2.6-6.2c-1.1-1.5-2.4-2.2-3.9-2.2H63.4v-20.5h22.1c3.6,0,6.7,1.6,9.4,4.8
			c2.7,3.2,4.8,7.6,6.3,13.4s2.2,12.5,2.2,20.1s-0.7,14.4-2.2,20.2c-1.5,5.8-3.6,10.3-6.3,13.4c-2.7,3.2-5.8,4.8-9.4,4.8H63.4V378.6
			z M78.6,395.1l10.8-4.1l16.6,61.9H93.5L78.6,395.1z"/>
		<path class="st11" d="M120.5,448.3c-3.4-4-6.1-9.6-7.9-16.8c-1.9-7.3-2.8-15.7-2.8-25.2v-14c0-9.6,0.9-27,2.8-34.2
			c1.9-7.3,4.5-12.9,7.9-16.8c3.4-4,7.4-6,11.9-6c4.5,0,8.4,2,11.9,6c3.4,4,6.1,9.6,7.9,16.8c1.9,7.3,2.8,24.7,2.8,34.2v14
			c0,9.6-0.9,18-2.8,25.2c-1.9,7.3-4.5,12.9-7.9,16.8c-3.4,4-7.4,6-11.9,6C127.9,454.2,124,452.3,120.5,448.3z M138.7,429.8
			c1.8-2.2,3.2-5.2,4.2-9.2s1.5-8.6,1.5-13.8v-15.3c0-5.2-0.5-18.8-1.5-22.8s-2.4-7-4.2-9.2s-3.9-3.2-6.3-3.2
			c-2.4,0-4.5,1.1-6.3,3.2c-1.8,2.2-3.2,8.2-4.2,12.2c1.1-4.3-1.5,5.6-1.5,19.8v15.3c0,5.2,0.5,9.8,1.5,13.8s2.4,7,4.2,9.2
			c1.8,2.2,3.9,3.2,6.3,3.2S136.9,431.9,138.7,429.8z"/>
		<path class="st11" d="M159.8,355.1c0,0,15.7,9.7,24.6,13c8.9,3.2,20.8,5.6,20.8,5.6v17.2c0,0-9-1.2-20.8-4.4
			c-8.5-2.3-24.6-13.3-24.6-13.3V355.1z M177.4,382.3l10.3,2v68.6h-10.3V382.3z"/>
		<path class="st11" d="M202.6,373.7c0,0,16.6,1.1,23.9,0.5c7.3-0.6,21.5-4.4,21.5-4.4v17c0,0-13.5,3.8-21.5,4.3
			c-9,0.6-23.9-0.5-23.9-0.5V373.7z M220.2,384.3h10.3v68.6h-10.3V384.3z"/>
		<path class="st11" d="M254.2,368.3l9.1-3.3l29.4,64.2l-1,2.3v-82.8l10.1-9.2v113.2h-11.4l-27.1-62l1-2.3v64.3h-10.1L254.2,368.3
			L254.2,368.3z"/>
		<path class="st11" d="M324.6,452.9H314V322.6h10.6V452.9z"/>
		<path class="st11" d="M337,322.6h11.3l27.2,100.3l-1,2.3V322.6h10.1v130.2h-11.4L346,354l1-2.3v101.1h-10V322.6z"/>
		<path class="st11" d="M440.3,381.4v24.1c0,9.7-0.9,18.2-2.8,25.6s-4.5,13.1-7.9,17.1s-7.3,6-11.8,6s-8.5-1.9-11.9-5.7
			c-3.4-3.8-6.1-9.2-8-16.1s-2.8-15-2.8-24.1v-38.4c0-9.7,0.9-18.2,2.8-25.5s4.5-13,7.9-17.1c3.4-4,7.3-6,11.8-6
			c3.7,0,7.1,1.6,10.2,4.8c3.1,3.2,5.7,7.7,7.8,13.6c2.1,5.9,3.5,12.6,4.3,20.3h-11.2c-0.5-3.6-1.3-6.7-2.4-9.2
			c-1.1-2.6-2.4-4.5-4-5.9c-1.5-1.3-3.1-2-4.7-2c-2.4,0-4.5,1.1-6.2,3.4s-3.2,5.4-4.1,9.5c-1,4.1-1.5,8.8-1.5,14.2v38.4
			c0,4.8,0.5,9.1,1.5,12.8c1,3.7,2.4,6.5,4.3,8.5c1.8,2,3,3,5.4,3s5.5-1.1,7.3-3.2s3.2-5.2,4.1-9.2c1-4,1.5-8.8,1.5-14.4V402h-11.2
			v-20.5L440.3,381.4L440.3,381.4z"/>
	</g>
</g>
</svg>
