<?xml version="1.0" encoding="utf-8"?>
<!-- Generator: Adobe Illustrator 23.0.3, SVG Export Plug-In . SVG Version: 6.00 Build 0)  -->
<svg version="1.1" id="Lager_1" xmlns="http://www.w3.org/2000/svg" xmlns:xlink="http://www.w3.org/1999/xlink" x="0px" y="0px"
	 viewBox="0 0 236.2 172.4" style="enable-background:new 0 0 236.2 172.4;" xml:space="preserve">
<style type="text/css">
	.st0{display:none;enable-background:new    ;}
	.st1{display:inline;}
	.st2{display:none;}
	.st3{display:none;fill:none;stroke:#FFFFFF;stroke-width:5;stroke-miterlimit:10;}
	.st4{display:none;fill:none;stroke:#FFFFFF;stroke-width:4;stroke-miterlimit:10;}
	.st5{display:none;stroke:#FFFFFF;stroke-width:5;stroke-miterlimit:10;}
	.st6{fill:#FF780A;}
</style>
<g class="st0">
	<path class="st1" d="M-14.7,445.7V290h13.4v65.5l28.4-44.3L37.9,322L16,356.7l37.8,89H38.7L7.4,370.4l-8.7,13.8v61.5L-14.7,445.7
		L-14.7,445.7z"/>
	<path class="st1" d="M54.2,335.8l13.4,9.3v59c0,8.5,1.4,16.6,4.1,20.3c2.7,3.7,6.8,5.6,12.3,5.6h0.6c5.1,0,8.9-1.9,11.7-5.6
		c3.1-4.3,4.7-12.3,4.7-20.3v-46.3l13.4,1.6v44.7c0,13.9-2.9,24.8-8.8,32.7c-4.3,5.9-11.3,8.8-21,8.8H84c-9.7,0-16.7-2.9-21-8.8
		c-5.8-8-8.8-18.9-8.8-32.7C54.2,404.1,54.2,335.8,54.2,335.8z"/>
	<path class="st1" d="M186.1,333.3v112.4h-16.3l-30.1-56.2h-0.6l-0.3,56.2h-13.4l0.2-86.1l15-2.2l31.4,61.8h0.6l0.1-75.8
		L186.1,333.3z"/>
	<path class="st1" d="M257.3,402.6c-0.9,19-7.6,28.9-7.6,28.9c-5.5,9.6-14.4,14.3-21.8,14.3c-6.6,0-12.3-3.2-16.9-9.6
		c-9-12.2-13.4-33.8-13.4-64.7c0-33,4.9-56.2,14.6-69.5c5.8-8,12.3-12,19.3-12c7.4,0,13.2,2.9,17.5,8.8c6.6,9.1,9.9,22.4,9.9,39.9
		h-12.3c-0.4-13.8-2.3-23.2-5.8-28c-2.7-3.7-5.8-5.6-9.3-5.6c-3.1,0-5.6,1.3-7.6,4c-8.6,11.7-12.8,32.5-12.8,62.3
		c0,26.1,3.1,43.4,9.3,51.9c3.1,4.3,6.2,6.4,9.3,6.4c3.9,0,7.4-2.1,10.5-6.4c4.7-6.4,7-17,7-32v-15.2h-18.1V361h29.8L257.3,402.6z"
		/>
</g>
<path class="st2" d="M245.2,362.1c0,70.4-57.1,127.5-127.5,127.5S-9.8,432.5-9.8,362.1"/>
<rect x="-9.8" y="330.1" class="st2" width="255" height="36"/>
<path class="st3" d="M80.7,403.6c0,0,32,7,57,5c0,0,22-49,22-52s-43.5-39-43.5-39l-47.5,30L80.7,403.6z"/>
<path class="st4" d="M133.7,478.6c0,0,18-14,29-31c0,0,37-8,44-13c0,0,3.2,15-3.4,22s-28.8,23.7-45.7,27.8
	C150.7,485.6,142.7,483.6,133.7,478.6z"/>
<path class="st5" d="M207.7,434.6c0,0,23-44,21-51s-16-32-23-39l-46,12l-22,52l25,39C162.7,447.6,201.7,439.6,207.7,434.6z"/>
<path class="st3" d="M52.7,438.6l28-35c0,0,32,6,57,5l25,39c0,0-13,20-29,31c0,0-22,4-54-5C79.7,473.6,65.7,463.6,52.7,438.6z"/>
<path class="st3" d="M52.7,438.6c0,0-26-9-39-22c0,0-8-15-13-53c0,0,9-18,26-33.5c0,0.5,42,17.5,42,17.5"/>
<path class="st4" d="M13.7,416.6c0,0-3,9,2,22S56,476.5,60.9,477s15.9,0.6,18.9-3.4"/>
<path class="st4" d="M228.7,384.6c0,0,14-9,19.5-24.5"/>
<path class="st4" d="M205.7,344.6c0,0,3-0.4,4.5-17.7"/>
<path class="st4" d="M0.7,363.6c0,0-9-5.6-13.5-24.5"/>
<g id="Lager_3" class="st2">
	<g class="st1">
		<path d="M16.7,650.5H-5.5l-58.8-92.2v92.2h-15.9l1.5-182.8h14.4v79.5l49.3-69.9L-2.3,490l-50.9,63.6L16.7,650.5z"/>
		<path d="M111.9,606.9c0,7-1,13.4-3,18.9c-2.1,5.6-4.9,10.5-8.7,14.5s-8.4,7-14,9.2s-11.9,3.2-19.1,3.2c-7.9,0-14.6-1.1-20-3.2
			c-5.6-2.1-10-4.9-13.4-8.7c-3.5-3.8-6-8.3-7.6-13.7s-2.4-11.3-2.4-17.8V505.9l17.3,9.5v92.8c0,4.9,0.5,9.4,1.4,13
			c1,3.8,2.5,6.8,4.6,9.4c2.1,2.5,4.9,4.5,8.3,5.7c3.3,1.3,7.6,1.9,12.4,1.9c9.2,0,15.9-2.7,20.3-7.9c4.5-5.2,6.5-12.7,6.5-22.4
			v-83.8h17.3L111.9,606.9L111.9,606.9z"/>
		<path d="M220.2,651h-22.6l-37-79l-10.7-25.4v63.9V651h-16.1V524.1l24.3-2.4l33.1,77.4l12.7,29.1v-67.9l0.3-48.2l15.9-6.4V651
			H220.2z"/>
		<path d="M332.4,490.3c-4.8-2.5-9.5-4.5-14.6-5.9c-4.9-1.4-10.3-2.1-16.4-2.1c-6.7,0-12.7,1.3-18,3.7s-9.7,5.7-13.2,10.2
			c-3.7,4.5-6.4,9.5-8.3,15.7S259,547,259,554.5c0,7.8,0.8,18.1,0.8,24.5c0,11.1-1.6,31.8,8.9,45.5c3.3,4.3,7.5,7.5,12.7,9.9
			c5.1,2.2,11.3,3.3,18.4,3.3c1.3,0,2.5,0,4-0.2s2.9-0.3,4.3-0.5s2.9-0.5,4.1-0.8c1.3-0.3,2.5-0.6,3.5-1.1v-73.8h-25.9V547h42.9
			v98.2c-2.7,1.3-5.4,2.4-8.4,3.3c-3,1-5.9,1.7-9.1,2.4c-3.2,0.6-6.2,1.1-9.2,1.4c-3,0.3-6,0.5-8.7,0.5c-8.7,0-16.5-1.3-23.4-4.1
			c-6.8-2.9-12.9-6.7-17.8-12.1c-4.9-5.4-8.6-11.9-11.3-19.9s-4-50.5-4-61c0-10.3,1.4-42,4.5-50.2c3-8.3,7-15.3,12.2-21
			c5.2-5.7,11.6-10.2,19.1-13c7.5-3,15.6-4.5,24.5-4.5c5.7,0,11.1,0.5,16.2,1.6c5.1,1,10,2.5,14.8,4.8L332.4,490.3L332.4,490.3z"/>
	</g>
	<text transform="matrix(1 0 0 1 -88.4237 739.7146)" class="st1" style="font-family:'Consolas'; font-size:109.6806px;">FOTBOLL</text>
</g>
<path d="M21,143.3"/>
<g>
	<rect x="33.7" y="164.2" class="st6" width="168.6" height="8.1"/>
	<path class="st6" d="M223.1,92.8c-0.6,0-1.1,0.1-1.7,0.2l14.9-43.1h-14.4l-4.2,9.6c-2.6,4.6-6.5,9.7-11.8,11.5
		c2.3-1.8,3.8-4.5,3.8-7.6c0-5.2-4.3-9.5-9.5-9.5s-9.5,4.3-9.5,9.5c0,0.5,0.1,0.9,0.1,1.4c-1.7-2.6-4.6-4.5-8-4.5
		c-5.3,0-9.5,4.3-9.5,9.5s4.3,9.5,9.5,9.5c0.7,0,1.3-0.1,1.9-0.2c-2.4,1.8-3.9,4.5-3.9,7.6c0,5.3,4.3,9.5,9.5,9.5
		c5.3,0,9.5-4.3,9.5-9.5c0-0.2,0-0.4,0-0.6c1.8,5.1,0.6,11.3-1.1,16.1c-4.4,7.5-16,22.8-30.7,7.1c-18.8,20.1-32.6-10.7-32.6-10.7
		l-1.4-3.3c-1.3-4.9-2.5-13.7,1.9-19.6c-0.6,2.1-0.5,4.5,0.5,6.6c2.2,4.8,7.8,6.8,12.6,4.6c4.8-2.2,6.8-7.8,4.6-12.6
		c-0.2-0.4-0.4-0.8-0.7-1.3c2.6,1.7,6.1,2.1,9.2,0.6c4.8-2.2,6.8-7.8,4.6-12.6s-7.8-6.8-12.6-4.6c-0.6,0.3-1.2,0.6-1.7,1
		c1.4-2.6,1.6-5.8,0.3-8.6c-2.2-4.8-7.8-6.8-12.6-4.6s-6.8,7.8-4.6,12.6c0.1,0.1,0.1,0.2,0.1,0.3c-7.7-7.3-11-22.1-12.1-28.3
		c2.6,3.2,7,4.5,11,2.9c4.3-1.8,6.6-6.3,5.7-10.7c-0.5-3.1-2.6-6-5.8-7.2c-2.7-1.1-5.5-0.8-7.9,0.4c1.5-2.4,1.9-5.6,0.7-8.5
		c-1.5-3.8-5.2-6-9-5.9c-3.8-0.1-7.5,2.1-9,5.9c-1.2,2.9-0.8,6,0.7,8.5c-2.4-1.3-5.2-1.4-7.9-0.4c-3.2,1.3-5.3,4.1-5.8,7.2
		c-0.9,4.4,1.4,9,5.7,10.7c3.9,1.6,8.4,0.3,11-2.9c-1.1,6.1-4.4,21-12.1,28.3c0.1-0.1,0.1-0.2,0.1-0.3c2.2-4.8,0.1-10.4-4.6-12.6
		c-4.8-2.2-10.4-0.1-12.6,4.6c-1.3,2.9-1.1,6,0.3,8.6c-0.5-0.4-1.1-0.8-1.7-1c-4.8-2.2-10.4-0.1-12.6,4.6s-0.1,10.4,4.6,12.6
		c3.1,1.4,6.5,1.1,9.2-0.6c-0.3,0.4-0.5,0.8-0.7,1.3c-2.2,4.8-0.1,10.4,4.6,12.6c4.8,2.2,10.4,0.1,12.6-4.6c1-2.1,1.1-4.5,0.5-6.6
		c4.5,5.9,3.2,14.7,1.9,19.6l-1.4,3.3c0,0-13.8,30.7-32.6,10.7c-14.7,15.7-26.3,0.4-30.7-7.1c-1.6-4.8-2.9-10.9-1.1-16.1
		c0,0.2-0.1,0.4-0.1,0.6c0,5.3,4.3,9.5,9.5,9.5c5.3,0,9.5-4.3,9.5-9.5c0-3.1-1.6-6-3.9-7.6c0.6,0.1,1.3,0.2,1.9,0.2
		c5.3,0,9.5-4.3,9.5-9.5s-4.3-9.5-9.5-9.5c-3.4,0-6.3,1.8-8,4.5c0.1-0.4,0.1-0.9,0.1-1.4c0-5.2-4.3-9.5-9.5-9.5s-9.5,4.3-9.5,9.5
		c0,3.1,1.5,5.9,3.8,7.6c-5.3-1.8-9.3-7-11.8-11.5l-4.2-9.6H0L14.9,93c-0.6-0.1-1.1-0.2-1.7-0.2c-4.7,0-8.5,3.8-8.5,8.5
		s3.8,8.5,8.5,8.5c2.6,0,4.9-1.2,6.5-3l18.6,54.1h30.1H96h2.4h16.8h1.9h2.3h4h14.5h2.4h27.6H198l18.6-54.1c1.6,1.8,3.9,3,6.5,3
		c4.7,0,8.5-3.8,8.5-8.5S227.8,92.8,223.1,92.8z M105.8,107.2v-2.6v0.1V107.2z M119.2,128.6c-0.2,0.9-0.3,0.9-0.4,0.3
		c-0.1,0.6-0.2,0.6-0.4-0.3c-1.3-6.3-6.9-13.8-6.9-13.8c6.9-8.1,6.9-15.7,6.9-15.7s0.1,2.2,0.2,5.4c0.1-3.1,0.1-5.3,0.1-5.3
		s0.1,7.5,7.2,15.5C125.8,114.6,120.3,122.3,119.2,128.6z M130.6,107.2v-2.6v-0.1V107.2z"/>
</g>
</svg>
