<?xml version="1.0" encoding="utf-8"?>
<!-- Generator: Adobe Illustrator 23.0.3, SVG Export Plug-In . SVG Version: 6.00 Build 0)  -->
<svg version="1.1" xmlns="http://www.w3.org/2000/svg" xmlns:xlink="http://www.w3.org/1999/xlink" x="0px" y="0px"
	 viewBox="0 0 54 54" style="enable-background:new 0 0 54 54;" xml:space="preserve">
<style type="text/css">
	.st0{display:none;}
	.st1{display:inline;}
	.st2{display:inline;fill:#FFFFFF;}
	.st3{display:inline;fill:none;stroke:#FFFFFF;stroke-width:2;stroke-miterlimit:10;}
	.st4{fill:#FFFFFF;stroke:#FFFFFF;stroke-width:2;stroke-miterlimit:10;}
	.st5{fill:none;stroke:#FFFFFF;stroke-width:2;stroke-miterlimit:10;}
	.st6{fill:#FFFFFF;}
</style>
<g id="Capa_1" class="st0">
	<g class="st1">
		<path d="M53.2,23.5l-3.1-0.6c-1.8-0.4-3.4-1.6-4-3.4c-0.7-1.7-0.4-3.7,0.7-5.2l2-2.7c0.3-0.4,0.2-0.9-0.1-1.3l-4.2-4.2
			C44,5.8,43.5,5.8,43.1,6l-2.6,1.8c-1.6,1.1-3.5,1.2-5.2,0.5C33.5,7.5,32.3,6,32,4.1l-0.5-3.3C31.4,0.4,31,0,30.5,0h-6
			c-0.5,0-0.9,0.3-1,0.8l-0.8,4c-0.3,1.8-1.6,3.3-3.3,4c-1.7,0.7-3.6,0.5-5.1-0.5L10.9,6C10.5,5.8,10,5.8,9.7,6.1l-4.2,4.2
			c-0.3,0.3-0.4,0.9-0.1,1.3l2,2.7c1.1,1.5,1.4,3.5,0.7,5.2c-0.7,1.7-2.2,3-4,3.4l-3.1,0.6C0.3,23.6,0,24,0,24.5v6
			c0,0.5,0.4,0.9,0.8,1L4.1,32c1.9,0.3,3.4,1.5,4.2,3.2c0.8,1.7,0.6,3.7-0.5,5.2L6,43.1c-0.3,0.4-0.2,0.9,0.1,1.3l4.2,4.2
			c0.3,0.3,0.9,0.4,1.3,0.1l2.7-2c1.5-1.1,3.5-1.4,5.2-0.7c1.7,0.7,3,2.2,3.4,4l0.6,3.1c0.1,0.5,0.5,0.8,1,0.8h6
			c0.5,0,0.9-0.4,1-0.8l0.4-2.3c0.3-1.9,1.5-3.5,3.3-4.2c1.8-0.7,3.8-0.5,5.3,0.6l1.9,1.4c0.4,0.3,1,0.2,1.3-0.1l4.2-4.2
			c0.3-0.3,0.4-0.9,0.1-1.3l-1.8-2.6c-1.1-1.6-1.2-3.5-0.5-5.2c0.8-1.7,2.3-2.9,4.2-3.2l3.3-0.5c0.5-0.1,0.8-0.5,0.8-1v-6
			C54,24,53.7,23.6,53.2,23.5z M52,29.6L49.6,30c-2.5,0.4-4.7,2-5.7,4.4c-1,2.4-0.8,5,0.7,7.1l1.3,2l-3.1,3.1l-1.2-0.9
			c-2.1-1.6-4.8-1.9-7.2-0.9c-2.4,1-4.1,3.1-4.5,5.7L29.6,52h-4.3l-0.4-2.3c-0.5-2.5-2.2-4.6-4.6-5.5c-2.4-0.9-5-0.6-7.1,0.9l-2,1.5
			l-3.1-3.1l1.3-2c1.4-2.1,1.7-4.8,0.7-7.1c-1-2.4-3.2-4-5.7-4.4L2,29.6v-4.3l2.3-0.4c2.5-0.5,4.6-2.2,5.5-4.6
			c0.9-2.4,0.6-5-0.9-7.1l-1.5-2l3.1-3.1l2.7,1.8c2.1,1.4,4.7,1.7,7,0.7c2.3-1,4-3,4.5-5.5L25.3,2h4.3L30,4.4c0.4,2.5,2,4.7,4.4,5.7
			s5,0.8,7.1-0.7l2-1.3l3.1,3.1l-1.5,2c-1.5,2.1-1.9,4.7-0.9,7.1c0.9,2.4,3,4.1,5.5,4.6l2.3,0.4V29.6z"/>
		<path d="M27.5,17C21.7,17,17,21.7,17,27.5S21.7,38,27.5,38S38,33.3,38,27.5S33.3,17,27.5,17z M27.5,36c-4.7,0-8.5-3.8-8.5-8.5
			s3.8-8.5,8.5-8.5s8.5,3.8,8.5,8.5S32.2,36,27.5,36z"/>
		<path d="M27.5,22c-3,0-5.5,2.5-5.5,5.5s2.5,5.5,5.5,5.5s5.5-2.5,5.5-5.5S30.5,22,27.5,22z M27.5,31c-1.9,0-3.5-1.6-3.5-3.5
			s1.6-3.5,3.5-3.5s3.5,1.6,3.5,3.5S29.4,31,27.5,31z"/>
	</g>
</g>
<g id="Lager_2" class="st0">
	<circle class="st2" cx="86.1" cy="27.6" r="4.6"/>
	<circle class="st3" cx="86.1" cy="27.6" r="8.6"/>
	<path class="st2" d="M111.9,31.5l0-8c-14.1-2.9-4.5-11.8-4.5-11.8L101.8,6c-11,7.7-11.6-5.2-11.6-5.2l-8,0C81.2,15.3,69.7,6,69.7,6
		l-5.6,5.7c9.2,11.5-4.5,11.8-4.5,11.8l0,8c13.7,1.4,5.2,11.6,5.2,11.6l5.7,5.6c11.2-8.3,11.8,4.5,11.8,4.5l8,0
		c1.7-12.4,10.8-4.5,10.8-4.5l5.7-5.6C98.2,32.4,111.9,31.5,111.9,31.5z M86.1,42c-8,0-14.5-6.5-14.5-14.5c0-8,6.5-14.5,14.5-14.5
		c8,0,14.5,6.5,14.5,14.5C100.5,35.5,94.1,42,86.1,42z"/>
	<g class="st1">
		<rect x="63" y="62.4" class="st4" width="51.7" height="10.9"/>
		<rect x="63" y="73.3" class="st5" width="51.7" height="36.7"/>
		<line class="st5" x1="63" y1="97.7" x2="114.7" y2="97.7"/>
		<line class="st5" x1="102.5" y1="73.3" x2="102.5" y2="110"/>
		<line class="st5" x1="63" y1="85.5" x2="114.7" y2="85.5"/>
		<line class="st5" x1="74.7" y1="73.3" x2="74.7" y2="110"/>
		<line class="st5" x1="88.9" y1="73.3" x2="88.9" y2="110"/>
		<line class="st5" x1="88.9" y1="97.7" x2="102.5" y2="85.5"/>
		<line class="st5" x1="88.9" y1="85.5" x2="102.5" y2="97.7"/>
		<ellipse class="st5" cx="80.6" cy="61.4" rx="3.2" ry="3.8"/>
		<ellipse class="st5" cx="98.6" cy="61.4" rx="3.2" ry="3.8"/>
		<ellipse class="st5" cx="89.6" cy="61.4" rx="3.2" ry="3.8"/>
	</g>
	<path class="st1" d="M46.7,41.8l-9.2-4.6c-0.9-0.4-1.4-1.3-1.4-2.3v-3.3c0.2-0.3,0.5-0.6,0.7-0.9c1.2-1.7,2.2-3.6,2.9-5.6
		c1.4-0.6,2.2-2,2.2-3.5v-3.9c0-0.9-0.3-1.8-1-2.5v-5.1c0.1-0.5,0.3-3.7-2-6.3c-2-2.3-5.2-3.4-9.6-3.4s-7.6,1.1-9.6,3.4
		c-1.4,1.6-1.9,3.4-2,4.6c-1.7-0.9-3.6-1.3-5.8-1.3c-10,0-10.6,8.6-10.6,8.7v4.4c-0.6,0.7-1,1.5-1,2.3v3.3c0,1,0.5,2,1.3,2.7
		c0.8,3,2.8,5.3,3.5,6.1v2.7c0,0.8-0.4,1.5-1.1,1.9l-6.4,4c-2.5,1.3-4,3.9-4,6.7v3.7H7H9h42.5v-3.9C51.5,46.3,49.7,43.3,46.7,41.8z
		 M7,49.4v2.2H-4.6v-1.7c0-2.1,1.1-4,3-5.1l6.4-4C6.2,40,7,38.7,7,37.2v-3.5l-0.3-0.3c0,0-2.6-2.4-3.4-5.8l-0.1-0.4l-0.3-0.2
		c-0.4-0.3-0.7-0.8-0.7-1.3v-3.3c0-0.3,0.2-0.8,0.6-1.1l0.3-0.3l0-5.2c0-0.3,0.5-6.8,8.7-6.8c2.3,0,4.3,0.5,5.8,1.6v4.6
		c-0.6,0.7-1,1.6-1,2.5v3.9c0,0.3,0,0.6,0.1,0.9c0,0.1,0.1,0.2,0.1,0.3c0.1,0.2,0.1,0.3,0.2,0.5c0,0,0,0,0,0c0.2,0.5,0.6,1,1.1,1.3
		c0,0,0,0,0,0.1c0.1,0.2,0.1,0.4,0.2,0.7l0.1,0.3c0,0,0,0.1,0,0.1c0,0.1,0.1,0.2,0.1,0.3c0.1,0.2,0.1,0.3,0.2,0.5
		c0,0.1,0.1,0.2,0.1,0.2c0.1,0.2,0.2,0.4,0.2,0.6c0,0,0,0.1,0.1,0.1l0.1,0.1c0,0.1,0.1,0.1,0.1,0.2c0.1,0.2,0.2,0.4,0.3,0.6
		c0,0,0,0.1,0,0.1c0.1,0.1,0.1,0.2,0.2,0.4c0.1,0.2,0.2,0.4,0.3,0.6c0.1,0.1,0.1,0.2,0.1,0.3c0.1,0.2,0.3,0.5,0.4,0.7
		c0,0,0.1,0.1,0.1,0.1c0.2,0.4,0.4,0.7,0.6,0.9c0,0.1,0.1,0.1,0.1,0.2c0,0,0.1,0.1,0.1,0.1v3.2c0,0.9-0.5,1.8-1.3,2.2l-2.6,1.4
		l-0.4,0L17,38.8l-5.4,3C8.8,43.3,7,46.2,7,49.4z M49.6,51.6H9v-2.2c0-2.5,1.4-4.8,3.5-6l8.6-4.7c1.4-0.8,2.3-2.3,2.3-3.9v-3.9v0
		l-0.2-0.2l0,0c0,0-0.1-0.1-0.2-0.2c0,0,0,0,0,0c-0.1-0.1-0.1-0.1-0.2-0.2c0,0,0,0,0,0c-0.1-0.2-0.3-0.5-0.5-0.8c0,0,0,0,0,0
		c-0.1-0.1-0.2-0.3-0.3-0.5c0,0,0,0,0,0c-0.2-0.4-0.5-0.8-0.7-1.2c0,0,0,0,0,0c-0.1-0.2-0.2-0.5-0.4-0.8l0,0c0,0,0-0.1-0.1-0.1l0,0
		c-0.1-0.1-0.1-0.2-0.2-0.4c0,0,0-0.1-0.1-0.1c-0.1-0.1-0.1-0.3-0.2-0.4c-0.1-0.3-0.2-0.5-0.3-0.8l-0.1-0.2c0,0,0,0,0-0.1
		c-0.1-0.3-0.2-0.6-0.3-0.9l-0.1-0.4l-0.3-0.2c-0.6-0.4-0.9-1-0.9-1.6v-3.9c0-0.5,0.2-1,0.6-1.4l0.3-0.3v-6V9.7l0,0
		c0-0.7,0-2.8,1.6-4.6c1.6-1.8,4.3-2.8,8.1-2.8c3.8,0,6.5,0.9,8.1,2.7c1.9,2.1,1.6,4.8,1.6,4.9l0,6.1l0.3,0.3
		c0.4,0.4,0.6,0.9,0.6,1.4v3.9c0,0.8-0.6,1.6-1.4,1.8L38,23.6l-0.2,0.5c-0.6,2-1.6,3.9-2.7,5.5c-0.3,0.4-0.6,0.8-0.8,1l-0.2,0.3v4
		c0,1.7,1,3.2,2.5,4l9.2,4.6c2.3,1.2,3.8,3.5,3.8,6.1V51.6z"/>
</g>
<g id="Lager_3">
	<g>
		<path class="st6" d="M22.9,43.9"/>
		<path class="st6" d="M24.2,44.5c0.4,0.2,0.2,0.1,0.7,0.4c8.7,1.1,10,8.7,10.1,8.8H15.8H0c0,0-1.8-7.7,6.8-8.8
			c0.3-0.2,0.5-0.3,0.8-0.4C7.6,44.4,16.1,53,24.2,44.5"/>
		<path class="st6" d="M22.9,43.9c-3.4-1.7-2.9-0.6-3.1-5.4c-4.2,4.4-8,0.1-8,0.1c-0.2,4.9,0.7,3.5-2.9,5.3
			C8.9,43.8,16.2,50.4,22.9,43.9z"/>
		<path class="st6" d="M19.8,37.3c0,0,3.4-2,3.7-6.3c0,0,1.6,0.7,1.6-2.9c0-3.7-0.6-1.9-1.4-3.1c-0.5-1.3,2.8-11.2-7.9-11.2
			c-10.7,0-7.4,10-7.9,11.2c-0.8,1.3-1.4-0.4-1.4,3.3c0,3.7,1.6,2.8,1.6,2.8c0.4,4.3,3.7,6.3,3.7,6.3C11.8,37.3,15.5,41.4,19.8,37.3
			z"/>
	</g>
	<g>
		<path class="st6" d="M44.9,43.9"/>
		<path class="st6" d="M46.2,44.5c0.4,0.2,0.2,0.1,0.7,0.4c8.7,1.1,7.1,8.7,7.2,8.8H37.8H18.7c0,0,1.4-7.7,10.1-8.8
			c0.3-0.2,0.5-0.3,0.8-0.4C29.6,44.4,38.1,53,46.2,44.5"/>
		<path class="st6" d="M44.9,43.9c-3.4-1.7-2.9-0.6-3.1-5.4c-4.2,4.4-8,0.1-8,0.1c-0.2,4.9,0.7,3.5-2.9,5.3
			C30.9,43.8,38.2,50.4,44.9,43.9z"/>
		<path class="st6" d="M41.8,37.3c0,0,3.4-2,3.7-6.3c0,0,1.6,0.7,1.6-2.9c0-3.7-0.6-1.9-1.4-3.1c-0.5-1.3,2.8-11.2-7.9-11.2
			c-10.7,0-7.4,10-7.9,11.2c-0.8,1.3-1.4-0.4-1.4,3.3c0,3.7,1.6,2.8,1.6,2.8c0.4,4.3,3.7,6.3,3.7,6.3S37.5,41.4,41.8,37.3z"/>
	</g>
	<path class="st5" d="M15.2,9C15.2,9,25-6.1,39,9"/>
	<line class="st5" x1="40" y1="9.7" x2="39.7" y2="4.7"/>
	<line class="st5" x1="34.6" y1="10.1" x2="41" y2="9.7"/>
</g>
</svg>
