<svg width="91" height="44" viewBox="0 0 91 44" fill="none" xmlns="http://www.w3.org/2000/svg">
<path d="M70.9447 21.2903C76.5643 21.2903 81.1203 16.5244 81.1203 10.6452C81.1203 4.76595 79.6245 0 70.9447 0C62.2649 0 60.7688 4.76595 60.7688 10.6452C60.7688 16.5244 65.3248 21.2903 70.9447 21.2903Z" fill="white"/>
<path d="M51.8151 38.4157C51.8134 38.0534 51.8116 38.3136 51.8151 38.4157V38.4157Z" fill="black"/>
<path d="M90.0734 39.0323C90.0788 38.8184 90.0752 37.5484 90.0734 39.0323V39.0323Z" fill="black"/>
<path d="M90.0533 37.6222C89.8657 27.4452 88.3199 24.5453 76.4909 22.7097C76.4909 22.7097 74.8258 24.5341 70.9448 24.5341C67.0637 24.5341 65.3983 22.7097 65.3983 22.7097C53.6984 24.5253 52.0586 27.3822 51.843 37.2916C51.8253 38.1008 51.8171 38.1433 51.814 38.0494C51.8147 38.2254 51.8155 38.5509 51.8155 39.1186C51.8155 39.1186 54.6317 44 70.9448 44C87.2575 44 90.074 39.1186 90.074 39.1186C90.074 38.7538 90.0743 38.5002 90.0747 38.3277C90.0716 38.3858 90.0653 38.2732 90.0533 37.6222Z" fill="white"/>
<path d="M19.1307 21.2903C24.7503 21.2903 29.3063 16.5244 29.3063 10.6452C29.3063 4.76595 27.8105 0 19.1307 0C10.4509 0 8.95483 4.76595 8.95483 10.6452C8.95483 16.5244 13.5108 21.2903 19.1307 21.2903Z" fill="white"/>
<path d="M38.2394 37.6222C38.0518 27.4452 36.506 24.5453 24.677 22.7097C24.677 22.7097 23.0119 24.5341 19.1308 24.5341C15.2498 24.5341 13.5844 22.7097 13.5844 22.7097C1.88446 24.5253 0.24465 27.3822 0.029036 37.2916C0.0113556 38.1008 0.00316233 38.1433 0 38.0494C0.000718712 38.2254 0.00158117 38.5509 0.00158117 39.1186C0.00158117 39.1186 2.81778 44 19.1308 44C35.4436 44 38.2601 39.1186 38.2601 39.1186C38.2601 38.7538 38.2603 38.5002 38.2608 38.3277C38.2576 38.3858 38.2513 38.2732 38.2394 37.6222Z" fill="white"/>
<path d="M57.0607 15.0607C57.6464 14.4749 57.6464 13.5251 57.0607 12.9393L47.5147 3.3934C46.9289 2.80761 45.9792 2.80761 45.3934 3.3934C44.8076 3.97919 44.8076 4.92893 45.3934 5.51472L53.8787 14L45.3934 22.4853C44.8076 23.0711 44.8076 24.0208 45.3934 24.6066C45.9792 25.1924 46.9289 25.1924 47.5147 24.6066L57.0607 15.0607ZM34 15.5H56V12.5H34V15.5Z" fill="white"/>
</svg>
