<?xml version="1.0" encoding="utf-8"?>
<!-- Generator: Adobe Illustrator 23.0.3, SVG Export Plug-In . SVG Version: 6.00 Build 0)  -->
<svg version="1.1" xmlns="http://www.w3.org/2000/svg" xmlns:xlink="http://www.w3.org/1999/xlink" x="0px" y="0px"
	 viewBox="0 0 54 54" style="enable-background:new 0 0 54 54;" xml:space="preserve">
<style type="text/css">
	.st0{fill:none;stroke:#FFFFFF;stroke-width:3;stroke-miterlimit:10;}
	.st1{fill:#FFFFFF;}
	.st2{fill:none;stroke:#FFFFFF;stroke-miterlimit:10;}
</style>
<g id="Capa_1">
</g>
<g id="Lager_3">
	<polyline class="st0" points="1.6,39.1 1.6,2.2 52.2,2.2 52.2,39.1 	"/>
	<g>
		<path class="st1" d="M36.5,44.4l2.1-4.9l4.3-1.2c0,0,1.6,2.2,2.1,3.7c0,0-1,2.8-2.1,4.7c0,0-1.7,0.7-4.1,1.1L36.5,44.4z"/>
		<path class="st1" d="M30.9,44.1c0,0,2.4,0.7,5.3,0.5l2.4,3.6c0,0-2.1,2.5-2.6,2.7c0,0-1.7,0.5-5.2-0.5c0,0-1.1-0.8-2.4-3.1
			L30.9,44.1z"/>
		<path class="st1" d="M29.5,51.3c0,0,3.6,1.7,7.8,0.7c0,0-0.5-0.1-1.3-0.5c0,0-1.8,0.5-5.3-0.5C30.7,51,30.6,51.3,29.5,51.3z"/>
		<path class="st1" d="M27.9,47l2.5-3.1l-1.2-5.2L25.5,37c0,0-1.6,1.5-2.4,3c0,0,0.8,4.6,1.3,5C24.4,45,25.7,46.3,27.9,47z"/>
		<path class="st1" d="M24,46.8c0,0-2.4-3.1-2.1-7.8c0,0,0.5,1.1,0.8,1.1c0,0,0.7,4.4,1.3,5.2C23.9,45.2,23.7,46.2,24,46.8z"/>
		<path class="st1" d="M43.2,48.6c0,0,3.1-2.6,3.6-7.9c0,0-1.1,1.2-1.4,1.4c0,0-0.7,3-2.1,5.1C43.3,47.2,43.4,48.1,43.2,48.6z"/>
		<path d="M29.6,35.1"/>
		<path class="st1" d="M39.3,30.1l-4.5,0.9c-0.3,3.9-0.2,4.5-0.2,4.5l4,3.4l4.3-1.1c0.4-3.1,0.1-4.3,0.1-4.3
			C42.5,33,39.7,30.6,39.3,30.1z"/>
		<path class="st1" d="M26.4,32.1c0,0-0.1,0.1-0.1,0.1c0,0-0.4,0.3-0.7,4.3l4,1.6c0,0,1.8-1.3,4.4-2.7l0.4-4.4l-3.9-1.6L26.4,32.1z"
			/>
		<path class="st1" d="M24.3,32.2c0,0,3.3-3.9,7.5-4.6L30,29.1L26,31.7C26,31.7,25.1,31.4,24.3,32.2z"/>
		<path class="st1" d="M38.5,28.2c0,0,4.9,1.6,6.8,5.7c0,0-1.4-0.9-2.1-0.9c0,0-0.9-1-3.5-3.3C39.7,29.7,39.1,28.3,38.5,28.2z"/>
	</g>
	<line class="st2" x1="1.6" y1="7.5" x2="39.1" y2="7.5"/>
	<line class="st2" x1="1.6" y1="13.8" x2="27" y2="13.8"/>
	<line class="st2" x1="7.5" y1="2.2" x2="7.5" y2="29.9"/>
	<line class="st2" x1="12.9" y1="2.2" x2="12.9" y2="27"/>
	<line class="st2" x1="18.9" y1="2.2" x2="18.9" y2="17.3"/>
	<line class="st2" x1="1.6" y1="20.6" x2="17.1" y2="20.6"/>
</g>
</svg>
