<svg height="512pt" viewBox="0 -30 512.001 512" width="512pt" xmlns="http://www.w3.org/2000/svg"><path d="m474.5 0h-437c-20.679688 0-37.5 16.824219-37.5 37.5v338.414062c0 4.140626 3.359375 7.5 7.5 7.5h30c1.988281 0 3.898438-.789062 5.304688-2.199218l57.800781-57.800782h19.59375c3.863281 71.554688 63.292969 128.585938 135.792969 128.585938 72.503906 0 131.933593-57.03125 135.796874-128.585938h19.605469l57.800781 57.800782c1.410157 1.410156 3.316407 2.199218 5.304688 2.199218h30c4.144531 0 7.5-3.359374 7.5-7.5v-338.414062c0-20.675781-16.820312-37.5-37.5-37.5zm-384.5 97.5v94.207031c0 4.140625 3.359375 7.5 7.5 7.5s7.5-3.359375 7.5-7.5v-94.207031c0-21.1875-9.820312-40.117188-25.140625-52.5h352.28125c-15.320313 12.382812-25.140625 31.3125-25.140625 52.5v210.914062h-15.222656c-3.949219-71.476562-63.339844-128.414062-135.785156-128.414062-72.441407 0-131.832032 56.9375-135.78125 128.414062h-15.210938v-86.707031c0-4.140625-3.359375-7.5-7.5-7.5s-7.5 3.359375-7.5 7.5v91.101563l-45 45v-312.265625c25.40625 3.652343 45 25.554687 45 51.957031zm377-51.957031v312.261719l-45-45v-215.304688c0-26.402344 19.59375-48.304688 45-51.957031zm-108.078125 334-47.496094.007812-13.128906-18.078125 18.652344-57.386718 21.246093-6.902344 38.457032 27.945312c-1.488282 19.847656-7.789063 38.371094-17.730469 54.414063zm-158.371094 0c-10.03125 0-37.066406-.003907-47.488281-.007813-9.941406-16.042968-16.242188-34.566406-17.726562-54.414062l38.457031-27.949219 21.253906 6.90625 18.648437 57.371094zm158.570313-126.765625c9.777344 15.886718 15.988281 34.191406 17.507812 53.792968l-28.296875-20.566406zm-25.558594 30.140625-21.246094 6.902343-48.816406-35.457031v-22.359375l38.453125-27.929687c18.007813 7.421875 33.84375 19.066406 46.273437 33.699219zm-77.5625-64.003907-28.308594-20.5625c9.082032-2.183593 18.558594-3.351562 28.304688-3.351562s19.226562 1.167969 28.3125 3.351562zm-45.957031-14.839843 38.457031 27.933593v22.355469l-48.8125 35.453125-21.257812-6.910156-14.660157-45.140625c12.429688-14.628906 28.265625-26.273437 46.273438-33.691406zm-57.171875 48.695312 10.789062 33.222657-28.300781 20.566406c1.519531-19.597656 7.734375-37.902344 17.511719-53.789063zm74.59375 102.511719-17.648438-54.285156 46.183594-33.542969 46.183594 33.542969-17.648438 54.285156zm-63.441406 39.257812 34.898437.003907 10.8125 33.257812c-17.757813-7.375-33.390625-18.859375-45.710937-33.261719zm63.359374 39.035157-14.695312-45.214844 13.132812-18.078125h60.332032l13.140625 18.085938-14.695313 45.210937c-9.175781 2.230469-18.75 3.421875-28.601562 3.421875-9.855469 0-19.433594-1.191406-28.613282-3.425781zm74.863282-5.769531 10.808594-33.253907 34.902343-.007812c-12.320312 14.40625-27.953125 25.886719-45.710937 33.261719zm194.753906-59.390626h-15v-330.914062c0-4.140625-3.355469-7.5-7.5-7.5h-437c-4.140625 0-7.5 3.359375-7.5 7.5v330.914062h-15v-330.914062c0-12.40625 10.09375-22.5 22.5-22.5h437c12.40625 0 22.5 10.09375 22.5 22.5zm0 0"/></svg>