<?xml version="1.0" encoding="iso-8859-1"?>
<!-- Generator: Adobe Illustrator 16.0.0, SVG Export Plug-In . SVG Version: 6.00 Build 0)  -->
<!DOCTYPE svg PUBLIC "-//W3C//DTD SVG 1.1//EN" "http://www.w3.org/Graphics/SVG/1.1/DTD/svg11.dtd">
<svg version="1.1" id="Capa_1" xmlns="http://www.w3.org/2000/svg" xmlns:xlink="http://www.w3.org/1999/xlink" x="0px" y="0px"
	 width="84.631px" height="84.631px" viewBox="0 0 84.631 84.631" style="enable-background:new 0 0 84.631 84.631;"
	 xml:space="preserve">
<g>
	<g>
		<path d="M84.112,59.067l-3.804-5.633c2.467-0.627,4.297-2.867,4.297-5.526V29.172c0-3.146-2.559-5.702-5.703-5.702h-0.559
			c1.699-1.98,2.735-4.544,2.735-7.351c0-6.229-5.067-11.297-11.297-11.297c-6.228,0-11.296,5.067-11.296,11.297
			c0,2.807,1.035,5.37,2.736,7.351h-0.56c-1.265,0-2.424,0.427-3.371,1.126c1.077,0.798,1.867,1.957,2.177,3.303
			c0.313-0.294,0.73-0.483,1.194-0.483h18.238c0.969,0,1.757,0.788,1.757,1.757v18.736c0,0.969-0.788,1.756-1.757,1.756h-2.189
			c-0.729,0-1.399,0.404-1.743,1.048c-0.343,0.646-0.302,1.425,0.106,2.032l3.843,5.686h-2.206c-1.09,0-1.974,0.885-1.974,1.976
			v13.7c0,0.884-0.229,1.488-0.385,1.757h-9.143c-0.156-0.269-0.385-0.873-0.385-1.757V60.404c0-1.091-0.883-1.976-1.973-1.976
			h-2.205l3.84-5.686c0.408-0.607,0.451-1.387,0.107-2.032c-0.343-0.644-1.015-1.048-1.742-1.048h-2.19
			c-0.467,0-0.886-0.189-1.201-0.486c-0.309,1.348-1.092,2.51-2.17,3.307c0.584,0.434,1.242,0.771,1.968,0.951l-1.968,2.912
			l1.839,2.721c0.321,0.354,0.52,0.82,0.52,1.337c0,1.089-0.883,1.973-1.973,1.973h3.205v11.729c0,3.25,1.711,5.701,3.983,5.701
			h9.835c2.271,0,3.982-2.451,3.982-5.701V62.377h3.947c0.01,0,0.018,0,0.025,0c1.09,0,1.975-0.884,1.975-1.973
			C84.631,59.888,84.434,59.421,84.112,59.067z M69.783,23.47c-4.051,0-7.35-3.297-7.35-7.351c0-4.055,3.299-7.352,7.35-7.352
			c4.053,0,7.35,3.297,7.35,7.352C77.133,20.173,73.835,23.47,69.783,23.47z"/>
		<path d="M5.701,27.415H23.94c0.37,0,0.694,0.141,0.979,0.338c0.346-1.342,1.154-2.497,2.262-3.264
			c-0.922-0.642-2.036-1.02-3.24-1.02h-0.56c1.701-1.98,2.736-4.544,2.736-7.351c0-6.229-5.068-11.297-11.295-11.297
			c-6.229,0-11.296,5.067-11.296,11.297c0,2.807,1.036,5.37,2.735,7.351H5.702C2.558,23.469,0,26.025,0,29.171v18.736
			c0,2.658,1.831,4.898,4.297,5.527l-3.959,5.862c-0.408,0.604-0.45,1.388-0.107,2.03c0.342,0.645,1.013,1.048,1.742,1.048H5.92
			v11.729c0,3.25,1.713,5.701,3.983,5.701h9.836c2.272,0,3.984-2.451,3.984-5.701V62.377h2.969c-0.729,0-1.399-0.403-1.742-1.048
			c-0.342-0.645-0.302-1.426,0.106-2.03l2.125-3.145l-1.835-2.72c0.668-0.17,1.284-0.467,1.835-0.851
			c-1.107-0.769-1.917-1.918-2.263-3.258c-0.283,0.196-0.607,0.337-0.977,0.337H21.75c-0.73,0-1.401,0.404-1.743,1.048
			c-0.342,0.646-0.301,1.425,0.108,2.032l3.841,5.686H21.75c-1.09,0-1.974,0.885-1.974,1.976v13.7c0,0.884-0.227,1.488-0.384,1.757
			h-9.143c-0.156-0.269-0.383-0.873-0.383-1.757v-13.7c0-1.091-0.884-1.976-1.973-1.976H5.686l3.842-5.686
			c0.408-0.607,0.449-1.387,0.106-2.032c-0.343-0.644-1.013-1.048-1.742-1.048H5.7c-0.968,0-1.755-0.787-1.755-1.756V29.172
			C3.945,28.203,4.733,27.415,5.701,27.415z M14.821,8.768c4.052,0,7.348,3.297,7.348,7.352c0,4.054-3.296,7.351-7.348,7.351
			c-4.054,0-7.349-3.297-7.349-7.351C7.472,12.064,10.767,8.768,14.821,8.768z"/>
		<path d="M54.661,56.349l1.966-2.912c-0.724-0.183-1.382-0.52-1.966-0.951c1.078-0.799,1.86-1.961,2.17-3.309
			c0.095-0.41,0.161-0.83,0.161-1.269V29.172c0-0.438-0.062-0.863-0.155-1.273c-0.309-1.346-1.099-2.505-2.176-3.303
			c-0.946-0.699-2.106-1.126-3.371-1.126h-0.562c1.701-1.98,2.736-4.544,2.736-7.351c0-6.229-5.068-11.297-11.296-11.297
			c-6.229,0-11.295,5.067-11.295,11.297c0,2.807,1.035,5.37,2.735,7.351h-0.56c-1.203,0-2.318,0.378-3.239,1.02
			c-1.107,0.767-1.916,1.922-2.262,3.264c-0.119,0.456-0.201,0.927-0.201,1.419v18.736c0,0.492,0.082,0.965,0.199,1.419
			c0.347,1.34,1.156,2.489,2.263,3.258c-0.551,0.384-1.167,0.681-1.835,0.851l1.835,2.72l-2.125,3.146
			c-0.408,0.604-0.448,1.387-0.106,2.029c0.341,0.645,1.012,1.048,1.742,1.048h0.978c0.009,0,0.017,0,0.026,0h2.943v11.729
			c0,3.25,1.712,5.701,3.984,5.701h9.836c2.271,0,3.983-2.451,3.983-5.701V62.377h3.232h0.715h0.025
			c1.092,0,1.975-0.884,1.975-1.973c0-0.517-0.197-0.983-0.521-1.337L54.661,56.349z M42.17,8.768c4.053,0,7.35,3.297,7.35,7.352
			c0,4.054-3.297,7.351-7.35,7.351s-7.349-3.297-7.349-7.351C34.821,12.064,38.118,8.768,42.17,8.768z M47.465,52.744l3.84,5.687
			H49.1c-1.09,0-1.975,0.885-1.975,1.975v13.701c0,0.883-0.229,1.486-0.383,1.756h-9.143c-0.156-0.27-0.384-0.873-0.384-1.756
			V60.404c0-1.091-0.882-1.976-1.973-1.976h-2.206l3.841-5.686c0.408-0.607,0.449-1.387,0.107-2.032
			c-0.342-0.644-1.012-1.048-1.742-1.048H33.05c-0.37,0-0.693-0.141-0.977-0.336c0.118-0.455,0.199-0.928,0.199-1.42V29.172
			c0-0.492-0.082-0.963-0.2-1.419c0.284-0.197,0.607-0.338,0.978-0.338h18.24c0.463,0,0.88,0.189,1.195,0.483
			c-0.095,0.41-0.155,0.835-0.155,1.273v18.736c0,0.438,0.064,0.857,0.159,1.27c-0.313,0.297-0.731,0.486-1.199,0.486H49.1
			c-0.73,0-1.4,0.404-1.744,1.048C47.014,51.356,47.055,52.138,47.465,52.744z"/>
	</g>
</g>
<g>
</g>
<g>
</g>
<g>
</g>
<g>
</g>
<g>
</g>
<g>
</g>
<g>
</g>
<g>
</g>
<g>
</g>
<g>
</g>
<g>
</g>
<g>
</g>
<g>
</g>
<g>
</g>
<g>
</g>
</svg>
